<svg width="81" height="81" viewBox="0 0 81 81" fill="none" xmlns="http://www.w3.org/2000/svg">
<circle cx="40.5" cy="40.5" r="40.5" fill="white"/>
<path d="M47.0625 47.5C48.753 47.5 50.125 48.872 50.125 50.5625V54.066L50.111 54.255C49.5685 57.9773 46.226 59.7658 40.6173 59.7658C35.0295 59.7658 31.6327 57.9982 30.8995 54.3197L30.875 54.0625V50.5625C30.875 48.872 32.247 47.5 33.9375 47.5H47.0625ZM47.927 37H58.4375C60.128 37 61.5 38.372 61.5 40.0625V43.566L61.486 43.755C60.9435 47.4772 57.601 49.2658 51.9922 49.2658L51.6982 49.2622C51.4285 48.3032 50.8679 47.4513 50.0937 46.8242C49.3196 46.197 48.37 45.8254 47.3758 45.7605L47.0625 45.75H45.449C46.3635 45.0126 47.101 44.0797 47.6074 43.0197C48.1137 41.9597 48.376 40.7997 48.375 39.625C48.375 38.7045 48.2175 37.8225 47.927 37ZM22.5625 37H33.073C32.7825 37.8225 32.625 38.7045 32.625 39.625C32.625 41.9525 33.6365 44.0473 35.243 45.4875L35.551 45.75H33.9375C31.729 45.75 29.867 47.2375 29.3 49.2675L29.2422 49.2658C23.6545 49.2658 20.2577 47.4983 19.5245 43.8197L19.5 43.5625V40.0625C19.5 38.372 20.872 37 22.5625 37ZM40.5 33.5C42.1245 33.5 43.6824 34.1453 44.831 35.294C45.9797 36.4426 46.625 38.0005 46.625 39.625C46.625 41.2495 45.9797 42.8074 44.831 43.956C43.6824 45.1047 42.1245 45.75 40.5 45.75C38.8755 45.75 37.3176 45.1047 36.169 43.956C35.0203 42.8074 34.375 41.2495 34.375 39.625C34.375 38.0005 35.0203 36.4426 36.169 35.294C37.3176 34.1453 38.8755 33.5 40.5 33.5ZM51.875 23C53.4995 23 55.0574 23.6453 56.206 24.794C57.3547 25.9426 58 27.5005 58 29.125C58 30.7495 57.3547 32.3074 56.206 33.456C55.0574 34.6047 53.4995 35.25 51.875 35.25C50.2505 35.25 48.6926 34.6047 47.544 33.456C46.3953 32.3074 45.75 30.7495 45.75 29.125C45.75 27.5005 46.3953 25.9426 47.544 24.794C48.6926 23.6453 50.2505 23 51.875 23ZM29.125 23C30.7495 23 32.3074 23.6453 33.456 24.794C34.6047 25.9426 35.25 27.5005 35.25 29.125C35.25 30.7495 34.6047 32.3074 33.456 33.456C32.3074 34.6047 30.7495 35.25 29.125 35.25C27.5005 35.25 25.9426 34.6047 24.794 33.456C23.6453 32.3074 23 30.7495 23 29.125C23 27.5005 23.6453 25.9426 24.794 24.794C25.9426 23.6453 27.5005 23 29.125 23Z" fill="#0061E0"/>
</svg>
