<svg width="109" height="193" viewBox="0 0 109 193" fill="none" xmlns="http://www.w3.org/2000/svg">
<path d="M12.983 140.398C10.9754 140.398 9.18561 140.028 7.61364 139.29C6.05114 138.551 4.81061 137.533 3.89205 136.236C2.97348 134.938 2.49527 133.452 2.45739 131.776H8.4233C8.48958 132.902 8.96307 133.816 9.84375 134.517C10.7244 135.218 11.7708 135.568 12.983 135.568C13.9489 135.568 14.8011 135.355 15.5398 134.929C16.2879 134.493 16.8703 133.892 17.2869 133.125C17.7131 132.348 17.9261 131.458 17.9261 130.455C17.9261 129.432 17.7083 128.532 17.2727 127.756C16.8466 126.979 16.2547 126.373 15.4972 125.938C14.7396 125.502 13.8731 125.279 12.8977 125.27C12.0455 125.27 11.2169 125.445 10.4119 125.795C9.61648 126.146 8.99621 126.624 8.55114 127.23L3.08239 126.25L4.46023 110.909H22.2443V115.938H9.53125L8.77841 123.224H8.94886C9.46023 122.505 10.232 121.908 11.2642 121.435C12.2964 120.961 13.4517 120.724 14.7301 120.724C16.482 120.724 18.0445 121.136 19.4176 121.96C20.7907 122.784 21.875 123.916 22.6705 125.355C23.4659 126.785 23.8589 128.433 23.8494 130.298C23.8589 132.259 23.4044 134.001 22.4858 135.526C21.5767 137.041 20.303 138.234 18.6648 139.105C17.036 139.967 15.142 140.398 12.983 140.398ZM39.704 140.398C38.2078 140.388 36.7636 140.137 35.3716 139.645C33.989 139.152 32.7485 138.352 31.65 137.244C30.5515 136.136 29.6803 134.669 29.0364 132.841C28.4019 131.013 28.0847 128.769 28.0847 126.108C28.0941 123.665 28.3735 121.482 28.9227 119.56C29.4814 117.628 30.2769 115.99 31.3091 114.645C32.3508 113.3 33.596 112.277 35.0449 111.577C36.4938 110.866 38.1178 110.511 39.917 110.511C41.8583 110.511 43.5723 110.89 45.0591 111.648C46.5458 112.396 47.739 113.414 48.6386 114.702C49.5477 115.99 50.097 117.434 50.2864 119.034H44.221C43.9843 118.021 43.4871 117.225 42.7295 116.648C41.972 116.07 41.0345 115.781 39.917 115.781C38.0231 115.781 36.5837 116.605 35.5989 118.253C34.6235 119.901 34.1263 122.14 34.1074 124.972H34.3062C34.7419 124.11 35.329 123.376 36.0676 122.77C36.8157 122.154 37.6633 121.686 38.6102 121.364C39.5667 121.032 40.5752 120.866 41.6358 120.866C43.3593 120.866 44.8934 121.274 46.2381 122.088C47.5828 122.893 48.6434 124.001 49.4199 125.412C50.1964 126.823 50.5847 128.437 50.5847 130.256C50.5847 132.225 50.1254 133.977 49.2068 135.511C48.2977 137.045 47.0241 138.248 45.3858 139.119C43.757 139.981 41.8631 140.407 39.704 140.398ZM39.6756 135.568C40.6225 135.568 41.4701 135.341 42.2182 134.886C42.9663 134.432 43.5534 133.816 43.9795 133.04C44.4057 132.263 44.6187 131.392 44.6187 130.426C44.6187 129.46 44.4057 128.594 43.9795 127.827C43.5629 127.06 42.9852 126.449 42.2466 125.994C41.508 125.54 40.6652 125.312 39.7182 125.312C39.008 125.312 38.3498 125.445 37.7437 125.71C37.1472 125.975 36.6216 126.345 36.167 126.818C35.722 127.292 35.3716 127.841 35.1159 128.466C34.8602 129.081 34.7324 129.74 34.7324 130.44C34.7324 131.378 34.9455 132.235 35.3716 133.011C35.8072 133.788 36.3943 134.408 37.133 134.872C37.8811 135.336 38.7286 135.568 39.6756 135.568ZM66.7517 140.639C64.3085 140.63 62.2062 140.028 60.4449 138.835C58.693 137.642 57.3436 135.914 56.3966 133.651C55.4591 131.387 54.9951 128.665 55.0045 125.483C55.0045 122.311 55.4733 119.607 56.4108 117.372C57.3578 115.137 58.7072 113.437 60.4591 112.273C62.2205 111.098 64.318 110.511 66.7517 110.511C69.1854 110.511 71.2782 111.098 73.0301 112.273C74.7915 113.447 76.1456 115.152 77.0926 117.386C78.0396 119.612 78.5083 122.311 78.4989 125.483C78.4989 128.674 78.0254 131.402 77.0784 133.665C76.1409 135.928 74.7962 137.656 73.0443 138.849C71.2924 140.043 69.1949 140.639 66.7517 140.639ZM66.7517 135.54C68.4184 135.54 69.7489 134.702 70.7432 133.026C71.7375 131.349 72.2299 128.835 72.2205 125.483C72.2205 123.277 71.9932 121.439 71.5386 119.972C71.0936 118.504 70.4591 117.401 69.6352 116.662C68.8208 115.923 67.8597 115.554 66.7517 115.554C65.0945 115.554 63.7687 116.383 62.7744 118.04C61.7801 119.697 61.2782 122.178 61.2687 125.483C61.2687 127.718 61.4913 129.583 61.9364 131.08C62.3909 132.566 63.0301 133.684 63.854 134.432C64.6778 135.17 65.6437 135.54 66.7517 135.54ZM91.9777 135.568V115.455H97.0629V135.568H91.9777ZM84.4635 128.054V122.969H104.577V128.054H84.4635Z" fill="#0D263B"/>
<path d="M3.77273 175.614V174.364H12.5V175.614H8.84091V186H7.43182V175.614H3.77273ZM16.9327 186.182C16.1448 186.182 15.4536 185.994 14.8589 185.619C14.268 185.244 13.8058 184.72 13.4725 184.045C13.143 183.371 12.9782 182.583 12.9782 181.682C12.9782 180.773 13.143 179.979 13.4725 179.301C13.8058 178.623 14.268 178.097 14.8589 177.722C15.4536 177.347 16.1448 177.159 16.9327 177.159C17.7206 177.159 18.41 177.347 19.0009 177.722C19.5956 178.097 20.0577 178.623 20.3873 179.301C20.7206 179.979 20.8873 180.773 20.8873 181.682C20.8873 182.583 20.7206 183.371 20.3873 184.045C20.0577 184.72 19.5956 185.244 19.0009 185.619C18.41 185.994 17.7206 186.182 16.9327 186.182ZM16.9327 184.977C17.5312 184.977 18.0236 184.824 18.41 184.517C18.7964 184.21 19.0823 183.807 19.268 183.307C19.4536 182.807 19.5464 182.265 19.5464 181.682C19.5464 181.098 19.4536 180.555 19.268 180.051C19.0823 179.547 18.7964 179.14 18.41 178.83C18.0236 178.519 17.5312 178.364 16.9327 178.364C16.3342 178.364 15.8418 178.519 15.4555 178.83C15.0691 179.14 14.7831 179.547 14.5975 180.051C14.4119 180.555 14.3191 181.098 14.3191 181.682C14.3191 182.265 14.4119 182.807 14.5975 183.307C14.7831 183.807 15.0691 184.21 15.4555 184.517C15.8418 184.824 16.3342 184.977 16.9327 184.977ZM26.8896 177.273V178.409H22.3669V177.273H26.8896ZM23.6851 175.182H25.026V183.5C25.026 183.879 25.0809 184.163 25.1907 184.352C25.3044 184.538 25.4483 184.663 25.6226 184.727C25.8006 184.788 25.9881 184.818 26.1851 184.818C26.3328 184.818 26.454 184.811 26.5487 184.795C26.6434 184.777 26.7191 184.761 26.776 184.75L27.0487 185.955C26.9578 185.989 26.8309 186.023 26.668 186.057C26.5051 186.095 26.2987 186.114 26.0487 186.114C25.6699 186.114 25.2987 186.032 24.9351 185.869C24.5752 185.706 24.276 185.458 24.0373 185.125C23.8025 184.792 23.6851 184.371 23.6851 183.864V175.182ZM31.6348 186.205C31.0818 186.205 30.5799 186.1 30.1291 185.892C29.6784 185.68 29.3204 185.375 29.0553 184.977C28.7901 184.576 28.6576 184.091 28.6576 183.523C28.6576 183.023 28.756 182.617 28.953 182.307C29.15 181.992 29.4132 181.746 29.7428 181.568C30.0723 181.39 30.436 181.258 30.8337 181.17C31.2352 181.08 31.6386 181.008 32.0439 180.955C32.5742 180.886 33.0041 180.835 33.3337 180.801C33.667 180.763 33.9095 180.701 34.061 180.614C34.2163 180.527 34.2939 180.375 34.2939 180.159V180.114C34.2939 179.553 34.1405 179.117 33.8337 178.807C33.5307 178.496 33.0704 178.341 32.453 178.341C31.8129 178.341 31.311 178.481 30.9473 178.761C30.5837 179.042 30.328 179.341 30.1803 179.659L28.9076 179.205C29.1348 178.674 29.4379 178.261 29.8166 177.966C30.1992 177.667 30.6159 177.458 31.0666 177.341C31.5212 177.22 31.9682 177.159 32.4076 177.159C32.6879 177.159 33.0098 177.193 33.3735 177.261C33.7409 177.326 34.0951 177.46 34.436 177.665C34.7807 177.869 35.0666 178.178 35.2939 178.591C35.5212 179.004 35.6348 179.557 35.6348 180.25V186H34.2939V184.818H34.2257C34.1348 185.008 33.9833 185.21 33.7712 185.426C33.5591 185.642 33.2769 185.826 32.9246 185.977C32.5723 186.129 32.1424 186.205 31.6348 186.205ZM31.8394 185C32.3697 185 32.8166 184.896 33.1803 184.688C33.5477 184.479 33.8242 184.21 34.0098 183.881C34.1992 183.551 34.2939 183.205 34.2939 182.841V181.614C34.2371 181.682 34.1121 181.744 33.9189 181.801C33.7295 181.854 33.5098 181.902 33.2598 181.943C33.0136 181.981 32.7731 182.015 32.5382 182.045C32.3072 182.072 32.1197 182.095 31.9757 182.114C31.6273 182.159 31.3015 182.233 30.9985 182.335C30.6992 182.434 30.4568 182.583 30.2712 182.784C30.0894 182.981 29.9985 183.25 29.9985 183.591C29.9985 184.057 30.1708 184.409 30.5155 184.648C30.864 184.883 31.3053 185 31.8394 185ZM39.5832 174.364V186H38.2423V174.364H39.5832ZM47.5182 186H46.041L50.3137 174.364H51.7682L56.041 186H54.5637L51.0864 176.205H50.9955L47.5182 186ZM48.0637 181.455H54.0182V182.705H48.0637V181.455ZM57.8316 186V177.273H59.1271V178.591H59.218C59.3771 178.159 59.665 177.809 60.0816 177.54C60.4983 177.271 60.968 177.136 61.4907 177.136C61.5892 177.136 61.7123 177.138 61.8601 177.142C62.0078 177.146 62.1195 177.152 62.1953 177.159V178.523C62.1498 178.511 62.0457 178.494 61.8828 178.472C61.7237 178.445 61.5551 178.432 61.3771 178.432C60.9529 178.432 60.5741 178.521 60.2407 178.699C59.9112 178.873 59.6498 179.116 59.4566 179.426C59.2673 179.733 59.1726 180.083 59.1726 180.477V186H57.8316ZM67.3382 186.182C66.4973 186.182 65.7719 185.996 65.1621 185.625C64.556 185.25 64.0882 184.727 63.7587 184.057C63.4329 183.383 63.2701 182.598 63.2701 181.705C63.2701 180.811 63.4329 180.023 63.7587 179.341C64.0882 178.655 64.5466 178.121 65.1337 177.739C65.7246 177.352 66.414 177.159 67.2019 177.159C67.6564 177.159 68.1053 177.235 68.5485 177.386C68.9916 177.538 69.3951 177.784 69.7587 178.125C70.1223 178.462 70.4121 178.909 70.628 179.466C70.8439 180.023 70.9519 180.708 70.9519 181.523V182.091H64.2246V180.932H69.5882C69.5882 180.439 69.4898 180 69.2928 179.614C69.0996 179.227 68.8231 178.922 68.4632 178.699C68.1072 178.475 67.6867 178.364 67.2019 178.364C66.6678 178.364 66.2057 178.496 65.8155 178.761C65.4291 179.023 65.1318 179.364 64.9235 179.784C64.7151 180.205 64.611 180.655 64.611 181.136V181.909C64.611 182.568 64.7246 183.127 64.9519 183.585C65.1829 184.04 65.503 184.386 65.9121 184.625C66.3212 184.86 66.7966 184.977 67.3382 184.977C67.6905 184.977 68.0087 184.928 68.2928 184.83C68.5807 184.727 68.8288 184.576 69.0371 184.375C69.2454 184.17 69.4064 183.917 69.5201 183.614L70.8155 183.977C70.6791 184.417 70.45 184.803 70.128 185.136C69.806 185.466 69.4083 185.723 68.9348 185.909C68.4613 186.091 67.9291 186.182 67.3382 186.182ZM75.7198 186.205C75.1668 186.205 74.6649 186.1 74.2142 185.892C73.7634 185.68 73.4054 185.375 73.1403 184.977C72.8751 184.576 72.7426 184.091 72.7426 183.523C72.7426 183.023 72.841 182.617 73.038 182.307C73.235 181.992 73.4982 181.746 73.8278 181.568C74.1573 181.39 74.521 181.258 74.9187 181.17C75.3202 181.08 75.7236 181.008 76.1289 180.955C76.6592 180.886 77.0892 180.835 77.4187 180.801C77.752 180.763 77.9945 180.701 78.146 180.614C78.3013 180.527 78.3789 180.375 78.3789 180.159V180.114C78.3789 179.553 78.2255 179.117 77.9187 178.807C77.6157 178.496 77.1554 178.341 76.538 178.341C75.8979 178.341 75.396 178.481 75.0323 178.761C74.6687 179.042 74.413 179.341 74.2653 179.659L72.9926 179.205C73.2198 178.674 73.5229 178.261 73.9017 177.966C74.2842 177.667 74.7009 177.458 75.1517 177.341C75.6062 177.22 76.0532 177.159 76.4926 177.159C76.7729 177.159 77.0948 177.193 77.4585 177.261C77.8259 177.326 78.1801 177.46 78.521 177.665C78.8657 177.869 79.1517 178.178 79.3789 178.591C79.6062 179.004 79.7198 179.557 79.7198 180.25V186H78.3789V184.818H78.3107C78.2198 185.008 78.0683 185.21 77.8562 185.426C77.6441 185.642 77.3619 185.826 77.0096 185.977C76.6573 186.129 76.2274 186.205 75.7198 186.205ZM75.9244 185C76.4547 185 76.9017 184.896 77.2653 184.688C77.6327 184.479 77.9092 184.21 78.0948 183.881C78.2842 183.551 78.3789 183.205 78.3789 182.841V181.614C78.3221 181.682 78.1971 181.744 78.0039 181.801C77.8145 181.854 77.5948 181.902 77.3448 181.943C77.0986 181.981 76.8581 182.015 76.6232 182.045C76.3922 182.072 76.2047 182.095 76.0607 182.114C75.7123 182.159 75.3865 182.233 75.0835 182.335C74.7842 182.434 74.5418 182.583 74.3562 182.784C74.1744 182.981 74.0835 183.25 74.0835 183.591C74.0835 184.057 74.2558 184.409 74.6005 184.648C74.949 184.883 75.3903 185 75.9244 185ZM93.5327 177.273C93.4645 176.697 93.188 176.25 92.7032 175.932C92.2183 175.614 91.6236 175.455 90.9191 175.455C90.4039 175.455 89.9532 175.538 89.5668 175.705C89.1842 175.871 88.885 176.1 88.6691 176.392C88.457 176.684 88.3509 177.015 88.3509 177.386C88.3509 177.697 88.4248 177.964 88.5725 178.188C88.724 178.407 88.9172 178.591 89.152 178.739C89.3869 178.883 89.6331 179.002 89.8907 179.097C90.1483 179.187 90.385 179.261 90.6009 179.318L91.7827 179.636C92.0858 179.716 92.4229 179.826 92.7941 179.966C93.1691 180.106 93.527 180.297 93.868 180.54C94.2127 180.778 94.4967 181.085 94.7202 181.46C94.9437 181.835 95.0555 182.295 95.0555 182.841C95.0555 183.47 94.8907 184.038 94.5611 184.545C94.2354 185.053 93.7581 185.456 93.1293 185.756C92.5043 186.055 91.7449 186.205 90.8509 186.205C90.0176 186.205 89.296 186.07 88.6861 185.801C88.0801 185.532 87.6028 185.157 87.2543 184.676C86.9096 184.195 86.7145 183.636 86.6691 183H88.1236C88.1615 183.439 88.3092 183.803 88.5668 184.091C88.8282 184.375 89.1577 184.587 89.5555 184.727C89.957 184.864 90.3888 184.932 90.8509 184.932C91.3888 184.932 91.8717 184.845 92.2998 184.67C92.7278 184.492 93.0668 184.246 93.3168 183.932C93.5668 183.614 93.6918 183.242 93.6918 182.818C93.6918 182.432 93.5839 182.117 93.368 181.875C93.152 181.633 92.868 181.436 92.5157 181.284C92.1634 181.133 91.7827 181 91.3736 180.886L89.9418 180.477C89.0327 180.216 88.313 179.843 87.7827 179.358C87.2524 178.873 86.9873 178.239 86.9873 177.455C86.9873 176.803 87.1634 176.235 87.5157 175.75C87.8717 175.261 88.349 174.883 88.9475 174.614C89.5498 174.341 90.2221 174.205 90.9645 174.205C91.7145 174.205 92.3812 174.339 92.9645 174.608C93.5479 174.873 94.01 175.237 94.3509 175.699C94.6956 176.161 94.8774 176.686 94.8964 177.273H93.5327ZM103.305 189.273V184.659H103.191C103.093 184.818 102.953 185.019 102.771 185.261C102.589 185.5 102.33 185.714 101.992 185.903C101.655 186.089 101.206 186.182 100.646 186.182C99.9186 186.182 99.2765 185.998 98.7197 185.631C98.1629 185.259 97.7273 184.737 97.4129 184.062C97.0985 183.384 96.9413 182.583 96.9413 181.659C96.9413 180.742 97.0985 179.947 97.4129 179.273C97.7273 178.598 98.1648 178.078 98.7254 177.71C99.286 177.343 99.9337 177.159 100.669 177.159C101.237 177.159 101.686 177.254 102.015 177.443C102.349 177.629 102.602 177.841 102.777 178.08C102.955 178.314 103.093 178.508 103.191 178.659H103.35V177.273H104.646V189.273H103.305ZM100.828 184.977C101.366 184.977 101.82 184.837 102.191 184.557C102.563 184.273 102.845 183.881 103.038 183.381C103.231 182.877 103.328 182.295 103.328 181.636C103.328 180.985 103.233 180.415 103.044 179.926C102.854 179.434 102.574 179.051 102.203 178.778C101.831 178.502 101.373 178.364 100.828 178.364C100.259 178.364 99.786 178.509 99.4072 178.801C99.0322 179.089 98.75 179.481 98.5606 179.977C98.375 180.47 98.2822 181.023 98.2822 181.636C98.2822 182.258 98.3769 182.822 98.5663 183.33C98.7595 183.833 99.0436 184.235 99.4186 184.534C99.7974 184.83 100.267 184.977 100.828 184.977Z" fill="#7C8893"/>
<path fill-rule="evenodd" clip-rule="evenodd" d="M52.3662 0.135568C46.6829 0.734109 41.3073 3.31231 37.2193 7.40015C32.3506 12.2685 29.7797 18.5061 29.7797 25.4508C29.7797 31.6484 31.7347 37.8599 35.8811 44.8379C36.4931 45.8675 38.5053 48.8984 38.8041 49.2406C38.9226 49.3764 39.0197 49.5322 39.0197 49.587C39.0197 49.6419 36.3483 49.7066 33.0832 49.7311C27.9119 49.7698 27.1146 49.8074 26.8988 50.0234C26.5219 50.4005 18.6917 69.4683 18.6917 70.009C18.6917 70.898 19.756 71.4278 20.4643 70.891C20.6221 70.7714 21.0221 70.0173 21.353 69.2151L21.9545 67.7568L25.9556 67.715L29.9567 67.6733L29.7098 68.2623C29.5741 68.5863 28.6434 70.8391 27.6417 73.2684L25.8203 77.6856H21.8484C18.7338 77.6856 17.8931 77.6434 17.9538 77.4901C17.9963 77.3827 18.2959 76.6356 18.6196 75.8301C19.088 74.665 19.179 74.2821 19.0653 73.9586C18.8611 73.378 18.2049 73.043 17.6469 73.2345C17.1441 73.407 16.8214 73.9985 15.637 76.9174C14.8055 78.9666 14.7942 79.4384 15.567 79.8303C15.8768 79.9875 23.8887 80.0199 55.1786 79.99L94.4022 79.9528L94.701 79.5836C94.8655 79.3807 95 79.079 95 78.9136C95 78.486 83.3444 50.328 83.0423 50.0256C82.8237 49.8068 82.0487 49.7699 76.8557 49.7311C73.5905 49.7066 70.9191 49.6419 70.9191 49.587C70.9191 49.5322 71.0162 49.3764 71.1347 49.2406C71.4336 48.8984 73.4457 45.8675 74.0578 44.8379C78.2042 37.8599 80.1591 31.6484 80.1591 25.4508C80.1591 18.5061 77.5883 12.2685 72.7195 7.40015C67.3423 2.02329 59.846 -0.652324 52.3662 0.135568ZM57.1811 2.48423C64.624 3.23616 71.0595 7.42767 74.808 13.9647C77.7715 19.1327 78.5765 25.1262 77.1501 31.4034C75.4888 38.7149 71.0348 46.47 63.9367 54.4103C61.3875 57.2618 55.4015 62.9879 54.9694 62.9879C54.4253 62.9879 46.9369 55.6137 44.4104 52.59C37.3019 44.0822 33.3737 36.3546 32.3026 28.7716C32.0465 26.9576 32.073 23.6333 32.3579 21.8632C34.1512 10.7192 43.4273 2.60666 54.6792 2.34148C55.1646 2.33006 56.2904 2.39433 57.1811 2.48423ZM53.6573 14.6765C51.8622 14.8954 49.7522 15.7264 48.8487 16.5701C48.2892 17.0928 48.2551 17.7641 48.7637 18.2421C49.2684 18.716 49.6217 18.6724 51.0161 17.9633C52.5255 17.1959 53.4254 16.9831 55.1258 16.9913C56.7838 16.9993 58.1859 17.4138 59.4813 18.2788C64.0872 21.3544 64.718 27.5567 60.8212 31.4531C57.5555 34.7187 52.3834 34.7187 49.1176 31.4531C46.6176 28.9533 45.9397 25.7484 47.1703 22.2473L47.6867 20.7785L47.3642 20.3448C46.965 19.8077 46.1694 19.6821 45.7233 20.0857C45.3496 20.424 44.8866 21.4493 44.538 22.7109C44.3565 23.3683 44.2767 24.2455 44.2811 25.5399C44.2866 27.1339 44.3494 27.6045 44.6988 28.6671C45.2776 30.4272 46.103 31.7586 47.4704 33.1385C49.4338 35.1193 52.1512 36.245 54.9694 36.245C59.6216 36.245 63.7987 33.1654 65.2185 28.6889C66.0721 25.9979 65.859 23.2749 64.5929 20.6928C63.4386 18.339 61.9122 16.815 59.5823 15.6895C57.6272 14.7451 55.7397 14.4224 53.6573 14.6765ZM36.29 52.3164C36.2323 52.4668 35.5821 54.0499 34.845 55.8344L33.5048 59.0789H29.5253C27.2461 59.0789 25.5682 59.019 25.5981 58.9388C25.6267 58.8617 26.2792 57.2786 27.0479 55.4207L28.4457 52.0427H32.4203C36.1413 52.0427 36.3882 52.0603 36.29 52.3164ZM42.5599 54.0363C45.8096 57.8745 53.0919 64.942 54.5113 65.6352C55.171 65.9574 55.5072 65.7529 58.1561 63.4178L60.4175 61.4243H67.2321C73.8381 61.4243 74.056 61.4147 74.3592 61.1115C74.7807 60.6902 74.7724 59.8436 74.343 59.4549C74.0345 59.1755 73.6659 59.1543 68.3834 59.1123L62.7529 59.0675L64.14 57.6269C64.903 56.8345 66.3253 55.254 67.3009 54.1145L69.0747 52.0427H75.2838H81.4931L82.8909 55.4207C83.6596 57.2786 84.3107 58.8578 84.3378 58.9299C84.3648 59.0021 82.9065 59.0828 81.0972 59.1091C77.9571 59.1549 77.7919 59.1725 77.4665 59.4982C77.2478 59.7171 77.1309 60.0199 77.1399 60.3429C77.1678 61.3176 77.2494 61.338 81.5127 61.4243L85.3717 61.5024L86.1859 63.4178L87 65.3332H74.7724C61.4567 65.3332 62.0106 65.2962 61.7831 66.2029C61.7268 66.4271 61.7221 66.7412 61.7727 66.9009C61.8234 67.0605 64.5507 69.5348 67.8332 72.3992L73.8015 77.6074L70.4084 77.6495L67.0155 77.6917L54.9493 67.4248C48.3128 61.7781 42.6871 57.0841 42.4478 56.9938C41.8569 56.7707 41.3254 57.0309 41.0128 57.6961C40.831 58.0829 33.2969 76.2611 32.8091 77.4901C32.7523 77.6333 32.1514 77.6856 30.5591 77.6856C29.3642 77.6856 28.3866 77.6638 28.3866 77.6373C28.3866 77.6107 29.3599 75.2359 30.5494 72.3602C31.7387 69.4842 32.7612 66.9347 32.8214 66.6942C32.9109 66.3371 32.8463 66.1723 32.4691 65.7951L32.0072 65.3332H27.4731H22.9389L23.7531 63.4178L24.5675 61.5024L29.6573 61.4613C34.7039 61.4204 34.7499 61.4171 35.0611 61.0704C35.2336 60.8779 36.1375 58.8561 37.0697 56.5771C38.0018 54.2982 38.8304 52.3458 38.9112 52.2382C38.9991 52.1212 39.4219 52.0427 39.965 52.0427H40.8719L42.5599 54.0363ZM53.009 68.8513L63.2969 77.6074L56.2285 77.648C52.3409 77.6704 46.0407 77.6704 42.2281 77.648L35.2961 77.6074L38.9172 68.8158C40.9087 63.9804 42.5793 60.0402 42.6297 60.0597C42.68 60.0793 47.3508 64.0355 53.009 68.8513ZM90.0067 72.6596C91.1189 75.356 92.029 77.59 92.029 77.624C92.029 77.6577 88.7393 77.6831 84.7187 77.6801L77.4084 77.6748L71.7791 72.7412C68.683 70.0277 66.12 67.7781 66.0837 67.7421C66.0473 67.706 70.9599 67.6946 77.0009 67.7166L87.9845 67.7568L90.0067 72.6596Z" fill="#0061E0"/>
</svg>
