<svg width="142" height="193" viewBox="0 0 142 193" fill="none" xmlns="http://www.w3.org/2000/svg">
<path d="M19.358 140V135.568L29.7131 125.98C30.5938 125.128 31.3324 124.361 31.929 123.679C32.535 122.997 32.9943 122.33 33.3068 121.676C33.6193 121.013 33.7756 120.298 33.7756 119.531C33.7756 118.679 33.5814 117.945 33.1932 117.33C32.8049 116.705 32.2746 116.226 31.6023 115.895C30.9299 115.554 30.1676 115.384 29.3153 115.384C28.4252 115.384 27.6487 115.563 26.9858 115.923C26.3229 116.283 25.8116 116.799 25.4517 117.472C25.0919 118.144 24.9119 118.944 24.9119 119.872H19.0739C19.0739 117.969 19.5047 116.316 20.3665 114.915C21.2282 113.513 22.4356 112.429 23.9886 111.662C25.5417 110.895 27.3314 110.511 29.358 110.511C31.4413 110.511 33.2547 110.881 34.7983 111.619C36.3513 112.348 37.5587 113.362 38.4205 114.659C39.2822 115.956 39.7131 117.443 39.7131 119.119C39.7131 120.218 39.4953 121.302 39.0597 122.372C38.6335 123.442 37.8712 124.631 36.7727 125.938C35.6742 127.235 34.1259 128.793 32.1278 130.611L27.8807 134.773V134.972H40.0966V140H19.358ZM56.118 140.398C54.6218 140.388 53.1777 140.137 51.7857 139.645C50.4031 139.152 49.1625 138.352 48.0641 137.244C46.9656 136.136 46.0944 134.669 45.4504 132.841C44.816 131.013 44.4987 128.769 44.4987 126.108C44.5082 123.665 44.7875 121.482 45.3368 119.56C45.8955 117.628 46.691 115.99 47.7232 114.645C48.7648 113.3 50.0101 112.277 51.4589 111.577C52.9078 110.866 54.5319 110.511 56.3311 110.511C58.2724 110.511 59.9864 110.89 61.4732 111.648C62.9599 112.396 64.1531 113.414 65.0527 114.702C65.9618 115.99 66.511 117.434 66.7004 119.034H60.6351C60.3983 118.021 59.9012 117.225 59.1436 116.648C58.386 116.07 57.4485 115.781 56.3311 115.781C54.4372 115.781 52.9978 116.605 52.0129 118.253C51.0375 119.901 50.5404 122.14 50.5214 124.972H50.7203C51.1559 124.11 51.743 123.376 52.4817 122.77C53.2298 122.154 54.0773 121.686 55.0243 121.364C55.9807 121.032 56.9893 120.866 58.0499 120.866C59.7733 120.866 61.3074 121.274 62.6521 122.088C63.9968 122.893 65.0574 124.001 65.8339 125.412C66.6105 126.823 66.9987 128.437 66.9987 130.256C66.9987 132.225 66.5394 133.977 65.6209 135.511C64.7118 137.045 63.4381 138.248 61.7999 139.119C60.1711 139.981 58.2771 140.407 56.118 140.398ZM56.0896 135.568C57.0366 135.568 57.8841 135.341 58.6322 134.886C59.3804 134.432 59.9675 133.816 60.3936 133.04C60.8197 132.263 61.0328 131.392 61.0328 130.426C61.0328 129.46 60.8197 128.594 60.3936 127.827C59.9769 127.06 59.3993 126.449 58.6607 125.994C57.922 125.54 57.0792 125.312 56.1322 125.312C55.422 125.312 54.7639 125.445 54.1578 125.71C53.5612 125.975 53.0357 126.345 52.5811 126.818C52.136 127.292 51.7857 127.841 51.53 128.466C51.2743 129.081 51.1464 129.74 51.1464 130.44C51.1464 131.378 51.3595 132.235 51.7857 133.011C52.2213 133.788 52.8084 134.408 53.547 134.872C54.2951 135.336 55.1427 135.568 56.0896 135.568ZM83.1658 140.639C80.7226 140.63 78.6203 140.028 76.8589 138.835C75.1071 137.642 73.7576 135.914 72.8107 133.651C71.8732 131.387 71.4091 128.665 71.4186 125.483C71.4186 122.311 71.8874 119.607 72.8249 117.372C73.7718 115.137 75.1213 113.437 76.8732 112.273C78.6345 111.098 80.7321 110.511 83.1658 110.511C85.5995 110.511 87.6923 111.098 89.4442 112.273C91.2055 113.447 92.5597 115.152 93.5067 117.386C94.4536 119.612 94.9224 122.311 94.9129 125.483C94.9129 128.674 94.4394 131.402 93.4925 133.665C92.555 135.928 91.2103 137.656 89.4584 138.849C87.7065 140.043 85.6089 140.639 83.1658 140.639ZM83.1658 135.54C84.8324 135.54 86.1629 134.702 87.1572 133.026C88.1516 131.349 88.644 128.835 88.6345 125.483C88.6345 123.277 88.4072 121.439 87.9527 119.972C87.5076 118.504 86.8732 117.401 86.0493 116.662C85.2349 115.923 84.2737 115.554 83.1658 115.554C81.5086 115.554 80.1828 116.383 79.1885 118.04C78.1942 119.697 77.6923 122.178 77.6828 125.483C77.6828 127.718 77.9053 129.583 78.3504 131.08C78.805 132.566 79.4442 133.684 80.268 134.432C81.0919 135.17 82.0578 135.54 83.1658 135.54ZM108.392 135.568V115.455H113.477V135.568H108.392ZM100.878 128.054V122.969H120.991V128.054H100.878Z" fill="#0D263B"/>
<path d="M0.772727 175.614V174.364H9.5V175.614H5.84091V186H4.43182V175.614H0.772727ZM13.9327 186.182C13.1448 186.182 12.4536 185.994 11.8589 185.619C11.268 185.244 10.8058 184.72 10.4725 184.045C10.143 183.371 9.97818 182.583 9.97818 181.682C9.97818 180.773 10.143 179.979 10.4725 179.301C10.8058 178.623 11.268 178.097 11.8589 177.722C12.4536 177.347 13.1448 177.159 13.9327 177.159C14.7206 177.159 15.41 177.347 16.0009 177.722C16.5956 178.097 17.0577 178.623 17.3873 179.301C17.7206 179.979 17.8873 180.773 17.8873 181.682C17.8873 182.583 17.7206 183.371 17.3873 184.045C17.0577 184.72 16.5956 185.244 16.0009 185.619C15.41 185.994 14.7206 186.182 13.9327 186.182ZM13.9327 184.977C14.5312 184.977 15.0236 184.824 15.41 184.517C15.7964 184.21 16.0823 183.807 16.268 183.307C16.4536 182.807 16.5464 182.265 16.5464 181.682C16.5464 181.098 16.4536 180.555 16.268 180.051C16.0823 179.547 15.7964 179.14 15.41 178.83C15.0236 178.519 14.5312 178.364 13.9327 178.364C13.3342 178.364 12.8418 178.519 12.4555 178.83C12.0691 179.14 11.7831 179.547 11.5975 180.051C11.4119 180.555 11.3191 181.098 11.3191 181.682C11.3191 182.265 11.4119 182.807 11.5975 183.307C11.7831 183.807 12.0691 184.21 12.4555 184.517C12.8418 184.824 13.3342 184.977 13.9327 184.977ZM23.8896 177.273V178.409H19.3669V177.273H23.8896ZM20.6851 175.182H22.026V183.5C22.026 183.879 22.0809 184.163 22.1907 184.352C22.3044 184.538 22.4483 184.663 22.6226 184.727C22.8006 184.788 22.9881 184.818 23.1851 184.818C23.3328 184.818 23.454 184.811 23.5487 184.795C23.6434 184.777 23.7191 184.761 23.776 184.75L24.0487 185.955C23.9578 185.989 23.8309 186.023 23.668 186.057C23.5051 186.095 23.2987 186.114 23.0487 186.114C22.6699 186.114 22.2987 186.032 21.9351 185.869C21.5752 185.706 21.276 185.458 21.0373 185.125C20.8025 184.792 20.6851 184.371 20.6851 183.864V175.182ZM28.6348 186.205C28.0818 186.205 27.5799 186.1 27.1291 185.892C26.6784 185.68 26.3204 185.375 26.0553 184.977C25.7901 184.576 25.6576 184.091 25.6576 183.523C25.6576 183.023 25.756 182.617 25.953 182.307C26.15 181.992 26.4132 181.746 26.7428 181.568C27.0723 181.39 27.436 181.258 27.8337 181.17C28.2352 181.08 28.6386 181.008 29.0439 180.955C29.5742 180.886 30.0041 180.835 30.3337 180.801C30.667 180.763 30.9095 180.701 31.061 180.614C31.2163 180.527 31.2939 180.375 31.2939 180.159V180.114C31.2939 179.553 31.1405 179.117 30.8337 178.807C30.5307 178.496 30.0704 178.341 29.453 178.341C28.8129 178.341 28.311 178.481 27.9473 178.761C27.5837 179.042 27.328 179.341 27.1803 179.659L25.9076 179.205C26.1348 178.674 26.4379 178.261 26.8166 177.966C27.1992 177.667 27.6159 177.458 28.0666 177.341C28.5212 177.22 28.9682 177.159 29.4076 177.159C29.6879 177.159 30.0098 177.193 30.3735 177.261C30.7409 177.326 31.0951 177.46 31.436 177.665C31.7807 177.869 32.0666 178.178 32.2939 178.591C32.5212 179.004 32.6348 179.557 32.6348 180.25V186H31.2939V184.818H31.2257C31.1348 185.008 30.9833 185.21 30.7712 185.426C30.5591 185.642 30.2769 185.826 29.9246 185.977C29.5723 186.129 29.1424 186.205 28.6348 186.205ZM28.8394 185C29.3697 185 29.8166 184.896 30.1803 184.688C30.5477 184.479 30.8242 184.21 31.0098 183.881C31.1992 183.551 31.2939 183.205 31.2939 182.841V181.614C31.2371 181.682 31.1121 181.744 30.9189 181.801C30.7295 181.854 30.5098 181.902 30.2598 181.943C30.0136 181.981 29.7731 182.015 29.5382 182.045C29.3072 182.072 29.1197 182.095 28.9757 182.114C28.6273 182.159 28.3015 182.233 27.9985 182.335C27.6992 182.434 27.4568 182.583 27.2712 182.784C27.0894 182.981 26.9985 183.25 26.9985 183.591C26.9985 184.057 27.1708 184.409 27.5155 184.648C27.864 184.883 28.3053 185 28.8394 185ZM36.5832 174.364V186H35.2423V174.364H36.5832ZM53.4046 178H51.9955C51.9122 177.595 51.7663 177.239 51.558 176.932C51.3535 176.625 51.1035 176.367 50.808 176.159C50.5163 175.947 50.1925 175.788 49.8364 175.682C49.4804 175.576 49.1091 175.523 48.7228 175.523C48.0182 175.523 47.38 175.701 46.808 176.057C46.2398 176.413 45.7872 176.938 45.4501 177.631C45.1167 178.324 44.9501 179.174 44.9501 180.182C44.9501 181.189 45.1167 182.04 45.4501 182.733C45.7872 183.426 46.2398 183.951 46.808 184.307C47.38 184.663 48.0182 184.841 48.7228 184.841C49.1091 184.841 49.4804 184.788 49.8364 184.682C50.1925 184.576 50.5163 184.419 50.808 184.21C51.1035 183.998 51.3535 183.739 51.558 183.432C51.7663 183.121 51.9122 182.765 51.9955 182.364H53.4046C53.2985 182.958 53.1054 183.491 52.8251 183.96C52.5448 184.43 52.1963 184.83 51.7796 185.159C51.3629 185.485 50.8951 185.733 50.3762 185.903C49.861 186.074 49.3099 186.159 48.7228 186.159C47.7304 186.159 46.8478 185.917 46.0751 185.432C45.3023 184.947 44.6944 184.258 44.2512 183.364C43.808 182.47 43.5864 181.409 43.5864 180.182C43.5864 178.955 43.808 177.894 44.2512 177C44.6944 176.106 45.3023 175.417 46.0751 174.932C46.8478 174.447 47.7304 174.205 48.7228 174.205C49.3099 174.205 49.861 174.29 50.3762 174.46C50.8951 174.631 51.3629 174.881 51.7796 175.21C52.1963 175.536 52.5448 175.934 52.8251 176.403C53.1054 176.869 53.2985 177.402 53.4046 178ZM59.2052 186.182C58.4173 186.182 57.7261 185.994 57.1314 185.619C56.5405 185.244 56.0783 184.72 55.745 184.045C55.4155 183.371 55.2507 182.583 55.2507 181.682C55.2507 180.773 55.4155 179.979 55.745 179.301C56.0783 178.623 56.5405 178.097 57.1314 177.722C57.7261 177.347 58.4173 177.159 59.2052 177.159C59.9931 177.159 60.6825 177.347 61.2734 177.722C61.8681 178.097 62.3302 178.623 62.6598 179.301C62.9931 179.979 63.1598 180.773 63.1598 181.682C63.1598 182.583 62.9931 183.371 62.6598 184.045C62.3302 184.72 61.8681 185.244 61.2734 185.619C60.6825 185.994 59.9931 186.182 59.2052 186.182ZM59.2052 184.977C59.8037 184.977 60.2961 184.824 60.6825 184.517C61.0689 184.21 61.3548 183.807 61.5405 183.307C61.7261 182.807 61.8189 182.265 61.8189 181.682C61.8189 181.098 61.7261 180.555 61.5405 180.051C61.3548 179.547 61.0689 179.14 60.6825 178.83C60.2961 178.519 59.8037 178.364 59.2052 178.364C58.6067 178.364 58.1143 178.519 57.728 178.83C57.3416 179.14 57.0556 179.547 56.87 180.051C56.6844 180.555 56.5916 181.098 56.5916 181.682C56.5916 182.265 56.6844 182.807 56.87 183.307C57.0556 183.807 57.3416 184.21 57.728 184.517C58.1143 184.824 58.6067 184.977 59.2052 184.977ZM66.7076 180.75V186H65.3666V177.273H66.6621V178.636H66.7757C66.9803 178.193 67.2909 177.837 67.7076 177.568C68.1242 177.295 68.6621 177.159 69.3212 177.159C69.9121 177.159 70.4291 177.28 70.8723 177.523C71.3155 177.761 71.6602 178.125 71.9064 178.614C72.1526 179.098 72.2757 179.712 72.2757 180.455V186H70.9348V180.545C70.9348 179.86 70.7568 179.326 70.4007 178.943C70.0447 178.557 69.556 178.364 68.9348 178.364C68.5068 178.364 68.1242 178.456 67.7871 178.642C67.4538 178.828 67.1905 179.098 66.9973 179.455C66.8041 179.811 66.7076 180.242 66.7076 180.75ZM81.0678 179.227L79.8633 179.568C79.7875 179.367 79.6758 179.172 79.5281 178.983C79.3841 178.79 79.1872 178.631 78.9372 178.506C78.6872 178.381 78.3671 178.318 77.9769 178.318C77.4428 178.318 76.9978 178.441 76.6417 178.688C76.2894 178.93 76.1133 179.239 76.1133 179.614C76.1133 179.947 76.2345 180.21 76.4769 180.403C76.7194 180.597 77.0981 180.758 77.6133 180.886L78.9088 181.205C79.6891 181.394 80.2705 181.684 80.6531 182.074C81.0356 182.46 81.2269 182.958 81.2269 183.568C81.2269 184.068 81.083 184.515 80.7951 184.909C80.511 185.303 80.1133 185.614 79.6019 185.841C79.0906 186.068 78.4959 186.182 77.8178 186.182C76.9277 186.182 76.1909 185.989 75.6076 185.602C75.0243 185.216 74.655 184.652 74.4997 183.909L75.7724 183.591C75.8936 184.061 76.1228 184.413 76.4599 184.648C76.8008 184.883 77.2459 185 77.7951 185C78.4201 185 78.9163 184.867 79.2838 184.602C79.655 184.333 79.8406 184.011 79.8406 183.636C79.8406 183.333 79.7345 183.08 79.5224 182.875C79.3103 182.667 78.9845 182.511 78.5451 182.409L77.0906 182.068C76.2913 181.879 75.7042 181.585 75.3292 181.188C74.958 180.786 74.7724 180.284 74.7724 179.682C74.7724 179.189 74.9106 178.754 75.1872 178.375C75.4675 177.996 75.8481 177.699 76.3292 177.483C76.8141 177.267 77.3633 177.159 77.9769 177.159C78.8406 177.159 79.5186 177.348 80.011 177.727C80.5072 178.106 80.8595 178.606 81.0678 179.227ZM87.2009 177.273V178.409H82.6781V177.273H87.2009ZM83.9963 175.182H85.3372V183.5C85.3372 183.879 85.3921 184.163 85.502 184.352C85.6156 184.538 85.7596 184.663 85.9338 184.727C86.1118 184.788 86.2993 184.818 86.4963 184.818C86.644 184.818 86.7652 184.811 86.8599 184.795C86.9546 184.777 87.0304 184.761 87.0872 184.75L87.3599 185.955C87.269 185.989 87.1421 186.023 86.9793 186.057C86.8164 186.095 86.6099 186.114 86.3599 186.114C85.9812 186.114 85.6099 186.032 85.2463 185.869C84.8865 185.706 84.5872 185.458 84.3486 185.125C84.1137 184.792 83.9963 184.371 83.9963 183.864V175.182ZM89.3779 186V177.273H90.6734V178.591H90.7643C90.9234 178.159 91.2112 177.809 91.6279 177.54C92.0446 177.271 92.5143 177.136 93.037 177.136C93.1355 177.136 93.2586 177.138 93.4063 177.142C93.554 177.146 93.6658 177.152 93.7415 177.159V178.523C93.6961 178.511 93.5919 178.494 93.429 178.472C93.2699 178.445 93.1014 178.432 92.9234 178.432C92.4991 178.432 92.1203 178.521 91.787 178.699C91.4574 178.873 91.1961 179.116 91.0029 179.426C90.8135 179.733 90.7188 180.083 90.7188 180.477V186H89.3779ZM100.991 182.432V177.273H102.332V186H100.991V184.523H100.9C100.696 184.966 100.377 185.343 99.9456 185.653C99.5137 185.96 98.9683 186.114 98.3092 186.114C97.7637 186.114 97.2789 185.994 96.8547 185.756C96.4304 185.513 96.0971 185.15 95.8547 184.665C95.6122 184.176 95.491 183.561 95.491 182.818V177.273H96.8319V182.727C96.8319 183.364 97.01 183.871 97.366 184.25C97.7259 184.629 98.1842 184.818 98.741 184.818C99.0744 184.818 99.4134 184.733 99.7581 184.562C100.107 184.392 100.398 184.131 100.633 183.778C100.872 183.426 100.991 182.977 100.991 182.432ZM108.493 186.182C107.675 186.182 106.971 185.989 106.38 185.602C105.789 185.216 105.334 184.684 105.016 184.006C104.698 183.328 104.539 182.553 104.539 181.682C104.539 180.795 104.702 180.013 105.027 179.335C105.357 178.653 105.815 178.121 106.402 177.739C106.993 177.352 107.683 177.159 108.471 177.159C109.084 177.159 109.637 177.273 110.13 177.5C110.622 177.727 111.026 178.045 111.34 178.455C111.654 178.864 111.849 179.341 111.925 179.886H110.584C110.482 179.489 110.255 179.136 109.902 178.83C109.554 178.519 109.084 178.364 108.493 178.364C107.971 178.364 107.512 178.5 107.118 178.773C106.728 179.042 106.423 179.422 106.204 179.915C105.988 180.403 105.88 180.977 105.88 181.636C105.88 182.311 105.986 182.898 106.198 183.398C106.414 183.898 106.717 184.286 107.107 184.562C107.501 184.839 107.963 184.977 108.493 184.977C108.842 184.977 109.158 184.917 109.442 184.795C109.726 184.674 109.967 184.5 110.164 184.273C110.361 184.045 110.501 183.773 110.584 183.455H111.925C111.849 183.97 111.662 184.434 111.363 184.847C111.067 185.256 110.675 185.581 110.187 185.824C109.702 186.062 109.137 186.182 108.493 186.182ZM117.841 177.273V178.409H113.318V177.273H117.841ZM114.636 175.182H115.977V183.5C115.977 183.879 116.032 184.163 116.142 184.352C116.256 184.538 116.4 184.663 116.574 184.727C116.752 184.788 116.939 184.818 117.136 184.818C117.284 184.818 117.405 184.811 117.5 184.795C117.595 184.777 117.67 184.761 117.727 184.75L118 185.955C117.909 185.989 117.782 186.023 117.619 186.057C117.456 186.095 117.25 186.114 117 186.114C116.621 186.114 116.25 186.032 115.886 185.869C115.526 185.706 115.227 185.458 114.989 185.125C114.754 184.792 114.636 184.371 114.636 183.864V175.182ZM120.018 186V177.273H121.359V186H120.018ZM120.7 175.818C120.438 175.818 120.213 175.729 120.024 175.551C119.838 175.373 119.745 175.159 119.745 174.909C119.745 174.659 119.838 174.445 120.024 174.267C120.213 174.089 120.438 174 120.7 174C120.961 174 121.185 174.089 121.37 174.267C121.56 174.445 121.654 174.659 121.654 174.909C121.654 175.159 121.56 175.373 121.37 175.551C121.185 175.729 120.961 175.818 120.7 175.818ZM127.52 186.182C126.732 186.182 126.041 185.994 125.446 185.619C124.855 185.244 124.393 184.72 124.06 184.045C123.73 183.371 123.566 182.583 123.566 181.682C123.566 180.773 123.73 179.979 124.06 179.301C124.393 178.623 124.855 178.097 125.446 177.722C126.041 177.347 126.732 177.159 127.52 177.159C128.308 177.159 128.997 177.347 129.588 177.722C130.183 178.097 130.645 178.623 130.975 179.301C131.308 179.979 131.475 180.773 131.475 181.682C131.475 182.583 131.308 183.371 130.975 184.045C130.645 184.72 130.183 185.244 129.588 185.619C128.997 185.994 128.308 186.182 127.52 186.182ZM127.52 184.977C128.119 184.977 128.611 184.824 128.997 184.517C129.384 184.21 129.67 183.807 129.855 183.307C130.041 182.807 130.134 182.265 130.134 181.682C130.134 181.098 130.041 180.555 129.855 180.051C129.67 179.547 129.384 179.14 128.997 178.83C128.611 178.519 128.119 178.364 127.52 178.364C126.922 178.364 126.429 178.519 126.043 178.83C125.657 179.14 125.371 179.547 125.185 180.051C124.999 180.555 124.907 181.098 124.907 181.682C124.907 182.265 124.999 182.807 125.185 183.307C125.371 183.807 125.657 184.21 126.043 184.517C126.429 184.824 126.922 184.977 127.52 184.977ZM135.023 180.75V186H133.682V177.273H134.977V178.636H135.091C135.295 178.193 135.606 177.837 136.023 177.568C136.439 177.295 136.977 177.159 137.636 177.159C138.227 177.159 138.744 177.28 139.187 177.523C139.631 177.761 139.975 178.125 140.221 178.614C140.468 179.098 140.591 179.712 140.591 180.455V186H139.25V180.545C139.25 179.86 139.072 179.326 138.716 178.943C138.36 178.557 137.871 178.364 137.25 178.364C136.822 178.364 136.439 178.456 136.102 178.642C135.769 178.828 135.506 179.098 135.312 179.455C135.119 179.811 135.023 180.242 135.023 180.75Z" fill="#7C8893"/>
<path fill-rule="evenodd" clip-rule="evenodd" d="M97.1236 0.168489C95.3731 0.663559 93.721 2.11941 93.1806 3.64282C93.0237 4.08534 92.8187 4.4785 92.7251 4.51653C81.1467 9.22602 67.3792 14.9318 66.8207 15.2519C65.0093 16.2908 63.4523 18.0045 62.3278 20.1964C61.9929 20.8498 61.1989 22.866 60.5636 24.6769L59.4086 27.9696L58.8256 27.9729C58.505 27.9748 57.8604 28.1544 57.3934 28.3723C55.8363 29.0982 55.4912 29.8718 53.903 36.1953L52.6166 41.3171H43.5397C36.8998 41.3171 34.2786 41.3717 33.7771 41.52C32.8621 41.7907 31.4823 43.1725 31.212 44.0887C30.9293 45.0468 30.9293 54.9349 31.212 55.893C31.4823 56.8092 32.8621 58.191 33.7771 58.4617C34.1683 58.5775 35.4374 58.6646 36.7336 58.6646H39.0045V60.0824C39.0045 61.3382 38.9702 61.5002 38.7037 61.5002C38.0998 61.5002 36.3232 62.2115 35.3439 62.8453C33.8847 63.7897 32.7554 65.0523 31.9962 66.5877C29.4997 71.6371 32.0748 77.7134 37.4935 79.5591L38.5881 79.9319L60.4913 79.9788C84.8131 80.0308 83.6419 80.0793 85.9346 78.9272C87.9542 77.9122 89.7151 75.8359 90.5018 73.5417C91.0052 72.074 91.0413 69.3908 90.5764 68.0055C89.1979 63.8978 85.6573 61.3334 81.3644 61.3334H80.3124V60.0385V58.7435L81.175 58.5383C82.1394 58.309 82.8652 57.8606 83.46 57.1268C84.2447 56.1589 84.2948 55.7484 84.3026 50.2392L84.3099 45.0665L81.3909 37.7607C79.7854 33.7426 78.2933 30.1719 78.0751 29.8258C77.5703 29.025 76.8147 28.3876 76.084 28.1461L75.5115 27.9568L76.0917 26.222C76.7369 24.2924 77.3073 23.3845 78.3491 22.6288C78.7342 22.3494 81.9164 20.3079 85.4204 18.0924C92.136 13.8463 92.34 13.6803 91.9869 12.7499C91.7752 12.1924 91.0829 11.7327 90.5974 11.8273C90.3915 11.8675 87.2248 13.7912 83.5604 16.1025C75.0007 21.501 74.7673 21.7277 73.3185 26.0547L72.7043 27.8895L67.451 27.9336L62.1979 27.9776L63.2324 25.0979C63.8014 23.5141 64.4027 21.9555 64.5684 21.6345C65.505 19.8215 67.0323 18.1243 68.3198 17.4654C69.1163 17.0579 92.5798 7.45625 92.7792 7.45625C92.867 7.45625 93.0119 7.66259 93.1014 7.91496C93.423 8.82203 103.943 37.9035 104.041 38.1554C104.107 38.3259 102.141 41.0831 98.2227 46.3149C91.8545 54.8184 91.8889 54.7602 92.7264 55.5989L93.1477 56.0208L98.348 55.956C103.25 55.895 103.608 55.8695 104.585 55.5127C107.333 54.5089 109.506 52.3293 110.467 49.611C110.762 48.7769 110.85 48.0758 110.917 46.0416L111 43.5103L110.571 43.0809C110.055 42.564 109.328 42.5193 108.772 42.97C108.399 43.2722 108.374 43.4163 108.287 45.7884C108.198 48.2571 108.189 48.3038 107.577 49.5435C106.642 51.4372 105.081 52.6954 103.097 53.1536C102.704 53.2445 101.013 53.3206 99.3407 53.3229L96.2994 53.3269L101.299 46.6548L106.3 39.9827H108.221C110.039 39.9827 110.165 39.9607 110.551 39.5732C110.776 39.348 110.96 39.0171 110.96 38.8374C110.96 38.0014 104.427 3.83564 104.15 3.22314C103.298 1.33978 101.376 0.0995998 99.165 0.00685774C98.4489 -0.0231667 97.5495 0.0480579 97.1236 0.168489ZM100.097 2.87803C100.899 3.21347 101.581 3.87534 101.793 4.52303C101.947 4.99325 107.962 36.8223 107.962 37.1651C107.962 37.247 107.643 37.3129 107.254 37.3115L106.546 37.3094L101 21.924C97.9492 13.4621 95.4136 6.38104 95.3653 6.18805C95.2116 5.57639 95.6358 4.4413 96.2724 3.76091C97.2661 2.69888 98.8145 2.34142 100.097 2.87803ZM98.044 5.69732C97.2177 6.52466 97.8031 7.95666 98.9676 7.95666C99.6523 7.95666 100.3 7.30796 100.3 6.62224C100.3 5.93652 99.6523 5.28782 98.9676 5.28782C98.6431 5.28782 98.3017 5.43911 98.044 5.69732ZM75.6248 31.0333C75.8268 31.2488 77.264 34.6062 78.8185 38.4943L81.6449 45.5639V50.3703V55.1769L81.236 55.5862L80.8273 55.9957H57.6597H34.4921L34.0834 55.5862L33.6745 55.1769V49.9909V44.8048L34.0834 44.3955L34.4921 43.986H44.3086C53.4225 43.986 54.1509 43.965 54.4862 43.6931C54.7768 43.4574 55.1076 42.3568 56.1784 38.0635C56.9105 35.1283 57.5809 32.4551 57.6684 32.1231C57.7558 31.791 57.9825 31.3218 58.172 31.0806L58.5167 30.6418H66.887H75.2574L75.6248 31.0333ZM60.8376 33.6025C60.5624 33.8274 60.2115 34.9037 59.3078 38.2927C57.7178 44.2562 57.5664 43.986 62.4979 43.986H65.6548V46.1903V48.3947L67.1847 50.7046C68.0261 51.9751 68.8458 53.0849 69.0059 53.1708C69.1661 53.2567 71.292 53.3269 73.7298 53.3269H78.1622L78.571 52.9174C78.9754 52.5126 78.9799 52.4749 78.9799 49.4434V46.3789L76.6728 40.8873C75.4039 37.8668 74.1997 35.0113 73.9966 34.5416C73.7686 34.0144 73.4695 33.6154 73.2144 33.4991C72.9326 33.3705 70.9568 33.3106 66.9979 33.3106C61.7179 33.3106 61.1622 33.337 60.8376 33.6025ZM65.6548 38.6483V41.3171H63.4894C62.2985 41.3171 61.3246 41.2609 61.3253 41.192C61.3259 41.1231 61.6258 39.9557 61.9915 38.5974C62.3573 37.2393 62.6566 36.0946 62.6566 36.0537C62.6566 36.0128 63.3312 35.9795 64.1557 35.9795H65.6548V38.6483ZM74.0246 41.4444L76.3149 46.9057V48.7819V50.6581H73.3387H70.3625L69.3412 49.1068L68.3198 47.5557V41.7675V35.9795L70.0271 35.9813L71.7344 35.9831L74.0246 41.4444ZM36.7484 47.0643C36.3503 47.4628 36.3395 47.5407 36.3395 49.9909C36.3395 52.441 36.3503 52.5189 36.7484 52.9174C37.0061 53.1756 37.3475 53.3269 37.672 53.3269C37.9965 53.3269 38.3379 53.1756 38.5956 52.9174C38.9937 52.5189 39.0045 52.441 39.0045 49.9909C39.0045 47.5407 38.9937 47.4628 38.5956 47.0643C38.3379 46.8061 37.9965 46.6548 37.672 46.6548C37.3475 46.6548 37.0061 46.8061 36.7484 47.0643ZM42.0785 47.0643C41.6804 47.4628 41.6695 47.5407 41.6695 49.9909C41.6695 52.441 41.6804 52.5189 42.0785 52.9174C42.3361 53.1756 42.6776 53.3269 43.0021 53.3269C43.3265 53.3269 43.668 53.1756 43.9257 52.9174C44.3237 52.5189 44.3346 52.441 44.3346 49.9909C44.3346 47.5407 44.3237 47.4628 43.9257 47.0643C43.668 46.8061 43.3265 46.6548 43.0021 46.6548C42.6776 46.6548 42.3361 46.8061 42.0785 47.0643ZM47.4085 47.0643C47.0109 47.4623 46.9996 47.5424 46.9996 49.9648C46.9996 52.1606 47.0369 52.5022 47.3149 52.8458C47.5553 53.1431 47.7974 53.236 48.3321 53.236C48.8668 53.236 49.109 53.1431 49.3493 52.8458C49.6273 52.5022 49.6646 52.1606 49.6646 49.9648C49.6646 47.5424 49.6533 47.4623 49.2557 47.0643C48.998 46.8061 48.6566 46.6548 48.3321 46.6548C48.0076 46.6548 47.6662 46.8061 47.4085 47.0643ZM77.6474 59.999V61.3334H74.0588C70.4705 61.3334 70.47 61.3334 70.0612 61.7429C69.5649 62.2398 69.5274 62.9768 69.9704 63.525L70.2886 63.9188L76.7579 64.0079C83.9683 64.1073 83.9803 64.1092 85.6028 65.3372C87.4004 66.6976 88.2254 68.4052 88.222 70.7577C88.2202 72.0927 88.1619 72.3824 87.695 73.3732C86.965 74.9223 86.0204 75.8893 84.5032 76.64L83.2446 77.263H60.991H38.7374L37.4683 76.6349C34.1117 74.9737 32.749 71.0648 34.3582 67.7139C35.1337 66.0986 37.0504 64.5964 38.8728 64.1756C39.3117 64.0741 44.7162 64.0088 52.8785 64.0063L66.1696 64.0023L66.5784 63.5928C66.8362 63.3347 66.9873 62.9928 66.9873 62.6678C66.9873 62.3429 66.8362 62.001 66.5784 61.7429L66.1696 61.3334H53.9195H41.6695V59.999V58.6646H59.6585H77.6474V59.999ZM41.6695 66.8891C41.3489 66.9903 40.7093 67.4519 40.2481 67.9146C39.071 69.0961 38.7459 70.3426 39.2071 71.906C39.4774 72.8223 40.8572 74.204 41.7722 74.4748C43.3339 74.9368 44.5789 74.611 45.756 73.4323C47.4412 71.7447 47.4412 69.604 45.756 67.9164C44.5839 66.7428 43.2198 66.3999 41.6695 66.8891ZM53.6622 66.8891C52.8447 67.1471 51.4504 68.593 51.1997 69.4427C50.7383 71.0066 51.0636 72.2535 52.2407 73.4323C53.8081 75.0019 55.8765 75.1073 57.5171 73.701C59.3716 72.1113 59.4706 69.6408 57.7486 67.9164C56.5765 66.7428 55.2124 66.3999 53.6622 66.8891ZM65.6548 66.8891C64.8373 67.1471 63.443 68.593 63.1923 69.4427C62.7301 71.0091 63.2141 72.6289 64.4648 73.701C66.4848 75.4324 69.4396 74.7412 70.5894 72.2683C71.0943 71.1826 71.0943 70.1661 70.5894 69.0804C69.7008 67.1695 67.6509 66.2591 65.6548 66.8891ZM77.6474 66.8891C76.8299 67.1471 75.4356 68.593 75.1849 69.4427C74.7235 71.0066 75.0488 72.2535 76.2259 73.4323C77.0886 74.2961 77.9322 74.6776 78.9799 74.6776C81.0438 74.6776 82.9774 72.7412 82.9774 70.6743C82.9774 69.6252 82.5965 68.7803 81.7339 67.9164C80.5618 66.7428 79.1976 66.3999 77.6474 66.8891ZM43.9257 69.7494C44.752 70.5768 44.1665 72.0088 43.0021 72.0088C42.3173 72.0088 41.6695 71.3601 41.6695 70.6743C41.6695 69.9886 42.3173 69.3399 43.0021 69.3399C43.3265 69.3399 43.668 69.4912 43.9257 69.7494ZM55.9183 69.7494C56.7446 70.5768 56.1591 72.0088 54.9947 72.0088C54.3099 72.0088 53.6622 71.3601 53.6622 70.6743C53.6622 69.9886 54.3099 69.3399 54.9947 69.3399C55.3191 69.3399 55.6606 69.4912 55.9183 69.7494ZM67.9109 69.7494C68.7372 70.5768 68.1517 72.0088 66.9873 72.0088C66.3025 72.0088 65.6548 71.3601 65.6548 70.6743C65.6548 69.9886 66.3025 69.3399 66.9873 69.3399C67.3117 69.3399 67.6532 69.4912 67.9109 69.7494ZM79.9035 69.7494C80.1613 70.0075 80.3124 70.3494 80.3124 70.6743C80.3124 70.9993 80.1613 71.3412 79.9035 71.5993C79.6458 71.8575 79.3044 72.0088 78.9799 72.0088C78.6554 72.0088 78.314 71.8575 78.0563 71.5993C77.7985 71.3412 77.6474 70.9993 77.6474 70.6743C77.6474 70.3494 77.7985 70.0075 78.0563 69.7494C78.314 69.4912 78.6554 69.3399 78.9799 69.3399C79.3044 69.3399 79.6458 69.4912 79.9035 69.7494Z" fill="#0061E0"/>
</svg>
