<svg width="129" height="193" viewBox="0 0 129 193" fill="none" xmlns="http://www.w3.org/2000/svg">
<path d="M28.0142 110.909V140H21.8636V116.747H21.6932L15.0312 120.923V115.469L22.233 110.909H28.0142ZM45.8538 110.511C47.35 110.511 48.7894 110.762 50.172 111.264C51.5641 111.766 52.8046 112.566 53.8936 113.665C54.9921 114.763 55.8586 116.222 56.493 118.04C57.137 119.848 57.4637 122.069 57.4732 124.702C57.4732 127.173 57.1938 129.38 56.6351 131.321C56.0858 133.253 55.2951 134.896 54.2629 136.25C53.2307 137.604 51.9855 138.636 50.5271 139.347C49.0688 140.047 47.44 140.398 45.6408 140.398C43.6995 140.398 41.9855 140.024 40.4987 139.276C39.012 138.518 37.8141 137.491 36.905 136.193C36.0054 134.886 35.4608 133.419 35.2714 131.79H41.3368C41.5735 132.85 42.0707 133.674 42.8283 134.261C43.5858 134.839 44.5233 135.128 45.6408 135.128C47.5347 135.128 48.9741 134.304 49.9589 132.656C50.9438 130.999 51.441 128.731 51.4504 125.852H51.2516C50.816 126.705 50.2288 127.438 49.4902 128.054C48.7516 128.66 47.904 129.129 46.9476 129.46C46.0006 129.792 44.9921 129.957 43.922 129.957C42.208 129.957 40.6786 129.555 39.3339 128.75C37.9893 127.945 36.9286 126.837 36.1521 125.426C35.3756 124.015 34.9874 122.405 34.9874 120.597C34.9779 118.646 35.4277 116.908 36.3368 115.384C37.2459 113.859 38.5148 112.666 40.1436 111.804C41.7819 110.933 43.6853 110.502 45.8538 110.511ZM45.8964 115.341C44.94 115.341 44.0877 115.568 43.3396 116.023C42.601 116.477 42.0139 117.088 41.5783 117.855C41.1521 118.622 40.9438 119.479 40.9533 120.426C40.9533 121.383 41.1616 122.244 41.5783 123.011C42.0044 123.769 42.5821 124.375 43.3112 124.83C44.0499 125.275 44.8927 125.497 45.8396 125.497C46.5499 125.497 47.208 125.365 47.8141 125.099C48.4201 124.834 48.9457 124.47 49.3908 124.006C49.8453 123.532 50.2004 122.988 50.4561 122.372C50.7118 121.757 50.8396 121.103 50.8396 120.412C50.8302 119.493 50.6124 118.651 50.1862 117.884C49.7601 117.116 49.173 116.501 48.4249 116.037C47.6768 115.573 46.8339 115.341 45.8964 115.341ZM73.5408 140.639C71.0976 140.63 68.9953 140.028 67.2339 138.835C65.4821 137.642 64.1326 135.914 63.1857 133.651C62.2482 131.387 61.7841 128.665 61.7936 125.483C61.7936 122.311 62.2624 119.607 63.1999 117.372C64.1468 115.137 65.4963 113.437 67.2482 112.273C69.0095 111.098 71.1071 110.511 73.5408 110.511C75.9745 110.511 78.0673 111.098 79.8192 112.273C81.5805 113.447 82.9347 115.152 83.8817 117.386C84.8286 119.612 85.2974 122.311 85.2879 125.483C85.2879 128.674 84.8144 131.402 83.8675 133.665C82.93 135.928 81.5853 137.656 79.8334 138.849C78.0815 140.043 75.9839 140.639 73.5408 140.639ZM73.5408 135.54C75.2074 135.54 76.5379 134.702 77.5322 133.026C78.5266 131.349 79.019 128.835 79.0095 125.483C79.0095 123.277 78.7822 121.439 78.3277 119.972C77.8826 118.504 77.2482 117.401 76.4243 116.662C75.6099 115.923 74.6487 115.554 73.5408 115.554C71.8836 115.554 70.5578 116.383 69.5635 118.04C68.5692 119.697 68.0673 122.178 68.0578 125.483C68.0578 127.718 68.2803 129.583 68.7254 131.08C69.18 132.566 69.8192 133.684 70.643 134.432C71.4669 135.17 72.4328 135.54 73.5408 135.54ZM98.7668 135.568V115.455H103.852V135.568H98.7668ZM91.2526 128.054V122.969H111.366V128.054H91.2526Z" fill="#0D263B"/>
<path d="M1.88636 186H0.409091L4.68182 174.364H6.13636L10.4091 186H8.93182L5.45455 176.205H5.36364L1.88636 186ZM2.43182 181.455H8.38636V182.705H2.43182V181.455ZM12.1998 189.273V177.273H13.4952V178.659H13.6543C13.7528 178.508 13.8892 178.314 14.0634 178.08C14.2414 177.841 14.4952 177.629 14.8248 177.443C15.1581 177.254 15.6089 177.159 16.177 177.159C16.9119 177.159 17.5596 177.343 18.1202 177.71C18.6808 178.078 19.1183 178.598 19.4327 179.273C19.7471 179.947 19.9043 180.742 19.9043 181.659C19.9043 182.583 19.7471 183.384 19.4327 184.062C19.1183 184.737 18.6827 185.259 18.1259 185.631C17.5691 185.998 16.927 186.182 16.1998 186.182C15.6392 186.182 15.1903 186.089 14.8532 185.903C14.5161 185.714 14.2566 185.5 14.0748 185.261C13.893 185.019 13.7528 184.818 13.6543 184.659H13.5407V189.273H12.1998ZM13.518 181.636C13.518 182.295 13.6145 182.877 13.8077 183.381C14.0009 183.881 14.2831 184.273 14.6543 184.557C15.0255 184.837 15.4801 184.977 16.018 184.977C16.5786 184.977 17.0464 184.83 17.4214 184.534C17.8002 184.235 18.0842 183.833 18.2736 183.33C18.4668 182.822 18.5634 182.258 18.5634 181.636C18.5634 181.023 18.4687 180.47 18.2793 179.977C18.0937 179.481 17.8115 179.089 17.4327 178.801C17.0577 178.509 16.5861 178.364 16.018 178.364C15.4725 178.364 15.0142 178.502 14.643 178.778C14.2717 179.051 13.9914 179.434 13.802 179.926C13.6127 180.415 13.518 180.985 13.518 181.636ZM24.678 186.205C24.1249 186.205 23.623 186.1 23.1723 185.892C22.7215 185.68 22.3636 185.375 22.0984 184.977C21.8333 184.576 21.7007 184.091 21.7007 183.523C21.7007 183.023 21.7992 182.617 21.9961 182.307C22.1931 181.992 22.4564 181.746 22.7859 181.568C23.1155 181.39 23.4791 181.258 23.8768 181.17C24.2783 181.08 24.6817 181.008 25.087 180.955C25.6173 180.886 26.0473 180.835 26.3768 180.801C26.7102 180.763 26.9526 180.701 27.1041 180.614C27.2594 180.527 27.337 180.375 27.337 180.159V180.114C27.337 179.553 27.1836 179.117 26.8768 178.807C26.5738 178.496 26.1136 178.341 25.4961 178.341C24.856 178.341 24.3541 178.481 23.9905 178.761C23.6268 179.042 23.3711 179.341 23.2234 179.659L21.9507 179.205C22.178 178.674 22.481 178.261 22.8598 177.966C23.2423 177.667 23.659 177.458 24.1098 177.341C24.5643 177.22 25.0113 177.159 25.4507 177.159C25.731 177.159 26.053 177.193 26.4166 177.261C26.784 177.326 27.1382 177.46 27.4791 177.665C27.8238 177.869 28.1098 178.178 28.337 178.591C28.5643 179.004 28.678 179.557 28.678 180.25V186H27.337V184.818H27.2689C27.178 185.008 27.0264 185.21 26.8143 185.426C26.6022 185.642 26.32 185.826 25.9677 185.977C25.6155 186.129 25.1855 186.205 24.678 186.205ZM24.8825 185C25.4128 185 25.8598 184.896 26.2234 184.688C26.5908 184.479 26.8673 184.21 27.053 183.881C27.2423 183.551 27.337 183.205 27.337 182.841V181.614C27.2802 181.682 27.1552 181.744 26.962 181.801C26.7727 181.854 26.553 181.902 26.303 181.943C26.0567 181.981 25.8162 182.015 25.5814 182.045C25.3503 182.072 25.1628 182.095 25.0189 182.114C24.6704 182.159 24.3446 182.233 24.0416 182.335C23.7423 182.434 23.4999 182.583 23.3143 182.784C23.1325 182.981 23.0416 183.25 23.0416 183.591C23.0416 184.057 23.2139 184.409 23.5586 184.648C23.9071 184.883 24.3484 185 24.8825 185ZM31.2854 186V177.273H32.5809V178.591H32.6718C32.8309 178.159 33.1187 177.809 33.5354 177.54C33.9521 177.271 34.4218 177.136 34.9445 177.136C35.043 177.136 35.1661 177.138 35.3138 177.142C35.4615 177.146 35.5733 177.152 35.649 177.159V178.523C35.6036 178.511 35.4994 178.494 35.3365 178.472C35.1774 178.445 35.0089 178.432 34.8309 178.432C34.4066 178.432 34.0278 178.521 33.6945 178.699C33.3649 178.873 33.1036 179.116 32.9104 179.426C32.721 179.733 32.6263 180.083 32.6263 180.477V186H31.2854ZM41.7409 177.273V178.409H37.2181V177.273H41.7409ZM38.5363 175.182H39.8772V183.5C39.8772 183.879 39.9321 184.163 40.042 184.352C40.1556 184.538 40.2996 184.663 40.4738 184.727C40.6518 184.788 40.8393 184.818 41.0363 184.818C41.184 184.818 41.3052 184.811 41.3999 184.795C41.4946 184.777 41.5704 184.761 41.6272 184.75L41.8999 185.955C41.809 185.989 41.6821 186.023 41.5193 186.057C41.3564 186.095 41.1499 186.114 40.8999 186.114C40.5212 186.114 40.1499 186.032 39.7863 185.869C39.4265 185.706 39.1272 185.458 38.8886 185.125C38.6537 184.792 38.5363 184.371 38.5363 183.864V175.182ZM43.9179 186V177.273H45.2134V178.636H45.327C45.5088 178.17 45.8024 177.809 46.2077 177.551C46.613 177.29 47.0997 177.159 47.6679 177.159C48.2437 177.159 48.7228 177.29 49.1054 177.551C49.4918 177.809 49.7929 178.17 50.0088 178.636H50.0997C50.3232 178.186 50.6584 177.828 51.1054 177.562C51.5524 177.294 52.0884 177.159 52.7134 177.159C53.4937 177.159 54.1319 177.403 54.6281 177.892C55.1243 178.377 55.3724 179.133 55.3724 180.159V186H54.0315V180.159C54.0315 179.515 53.8554 179.055 53.5031 178.778C53.1509 178.502 52.7361 178.364 52.2588 178.364C51.6452 178.364 51.1698 178.549 50.8327 178.92C50.4955 179.288 50.327 179.754 50.327 180.318V186H48.9634V180.023C48.9634 179.527 48.8024 179.127 48.4804 178.824C48.1584 178.517 47.7437 178.364 47.2361 178.364C46.8876 178.364 46.5618 178.456 46.2588 178.642C45.9596 178.828 45.7171 179.085 45.5315 179.415C45.3497 179.741 45.2588 180.117 45.2588 180.545V186H43.9179ZM61.6432 186.182C60.8023 186.182 60.0769 185.996 59.4671 185.625C58.861 185.25 58.3932 184.727 58.0637 184.057C57.7379 183.383 57.5751 182.598 57.5751 181.705C57.5751 180.811 57.7379 180.023 58.0637 179.341C58.3932 178.655 58.8516 178.121 59.4387 177.739C60.0296 177.352 60.719 177.159 61.5069 177.159C61.9614 177.159 62.4103 177.235 62.8535 177.386C63.2966 177.538 63.7001 177.784 64.0637 178.125C64.4273 178.462 64.7171 178.909 64.933 179.466C65.1489 180.023 65.2569 180.708 65.2569 181.523V182.091H58.5296V180.932H63.8932C63.8932 180.439 63.7948 180 63.5978 179.614C63.4046 179.227 63.1281 178.922 62.7682 178.699C62.4122 178.475 61.9917 178.364 61.5069 178.364C60.9728 178.364 60.5107 178.496 60.1205 178.761C59.7341 179.023 59.4368 179.364 59.2285 179.784C59.0201 180.205 58.916 180.655 58.916 181.136V181.909C58.916 182.568 59.0296 183.127 59.2569 183.585C59.4879 184.04 59.808 184.386 60.2171 184.625C60.6262 184.86 61.1016 184.977 61.6432 184.977C61.9955 184.977 62.3137 184.928 62.5978 184.83C62.8857 184.727 63.1338 184.576 63.3421 184.375C63.5504 184.17 63.7114 183.917 63.8251 183.614L65.1205 183.977C64.9841 184.417 64.755 184.803 64.433 185.136C64.111 185.466 63.7133 185.723 63.2398 185.909C62.7663 186.091 62.2341 186.182 61.6432 186.182ZM68.7976 180.75V186H67.4567V177.273H68.7521V178.636H68.8657C69.0703 178.193 69.3809 177.837 69.7976 177.568C70.2142 177.295 70.7521 177.159 71.4112 177.159C72.0021 177.159 72.5192 177.28 72.9623 177.523C73.4055 177.761 73.7502 178.125 73.9964 178.614C74.2426 179.098 74.3657 179.712 74.3657 180.455V186H73.0248V180.545C73.0248 179.86 72.8468 179.326 72.4907 178.943C72.1347 178.557 71.646 178.364 71.0248 178.364C70.5968 178.364 70.2142 178.456 69.8771 178.642C69.5438 178.828 69.2805 179.098 69.0873 179.455C68.8942 179.811 68.7976 180.242 68.7976 180.75ZM80.7715 177.273V178.409H76.2487V177.273H80.7715ZM77.5669 175.182H78.9078V183.5C78.9078 183.879 78.9628 184.163 79.0726 184.352C79.1862 184.538 79.3302 184.663 79.5044 184.727C79.6825 184.788 79.87 184.818 80.0669 184.818C80.2147 184.818 80.3359 184.811 80.4306 184.795C80.5253 184.777 80.601 184.761 80.6578 184.75L80.9306 185.955C80.8397 185.989 80.7128 186.023 80.5499 186.057C80.387 186.095 80.1806 186.114 79.9306 186.114C79.5518 186.114 79.1806 186.032 78.8169 185.869C78.4571 185.706 78.1578 185.458 77.9192 185.125C77.6844 184.792 77.5669 184.371 77.5669 183.864V175.182ZM88.9741 179.227L87.7695 179.568C87.6938 179.367 87.582 179.172 87.4343 178.983C87.2904 178.79 87.0934 178.631 86.8434 178.506C86.5934 178.381 86.2733 178.318 85.8832 178.318C85.3491 178.318 84.904 178.441 84.548 178.688C84.1957 178.93 84.0195 179.239 84.0195 179.614C84.0195 179.947 84.1408 180.21 84.3832 180.403C84.6256 180.597 85.0044 180.758 85.5195 180.886L86.815 181.205C87.5953 181.394 88.1767 181.684 88.5593 182.074C88.9419 182.46 89.1332 182.958 89.1332 183.568C89.1332 184.068 88.9892 184.515 88.7014 184.909C88.4173 185.303 88.0195 185.614 87.5082 185.841C86.9968 186.068 86.4021 186.182 85.7241 186.182C84.8339 186.182 84.0972 185.989 83.5139 185.602C82.9305 185.216 82.5612 184.652 82.4059 183.909L83.6786 183.591C83.7999 184.061 84.029 184.413 84.3661 184.648C84.707 184.883 85.1521 185 85.7014 185C86.3264 185 86.8226 184.867 87.19 184.602C87.5612 184.333 87.7468 184.011 87.7468 183.636C87.7468 183.333 87.6408 183.08 87.4286 182.875C87.2165 182.667 86.8908 182.511 86.4514 182.409L84.9968 182.068C84.1976 181.879 83.6105 181.585 83.2355 181.188C82.8642 180.786 82.6786 180.284 82.6786 179.682C82.6786 179.189 82.8169 178.754 83.0934 178.375C83.3737 177.996 83.7544 177.699 84.2355 177.483C84.7203 177.267 85.2695 177.159 85.8832 177.159C86.7468 177.159 87.4249 177.348 87.9173 177.727C88.4135 178.106 88.7658 178.606 88.9741 179.227ZM102.517 177.273C102.449 176.697 102.172 176.25 101.688 175.932C101.203 175.614 100.608 175.455 99.9035 175.455C99.3883 175.455 98.9376 175.538 98.5512 175.705C98.1686 175.871 97.8694 176.1 97.6535 176.392C97.4413 176.684 97.3353 177.015 97.3353 177.386C97.3353 177.697 97.4091 177.964 97.5569 178.188C97.7084 178.407 97.9016 178.591 98.1364 178.739C98.3713 178.883 98.6175 179.002 98.8751 179.097C99.1326 179.187 99.3694 179.261 99.5853 179.318L100.767 179.636C101.07 179.716 101.407 179.826 101.778 179.966C102.153 180.106 102.511 180.297 102.852 180.54C103.197 180.778 103.481 181.085 103.705 181.46C103.928 181.835 104.04 182.295 104.04 182.841C104.04 183.47 103.875 184.038 103.546 184.545C103.22 185.053 102.742 185.456 102.114 185.756C101.489 186.055 100.729 186.205 99.8353 186.205C99.002 186.205 98.2804 186.07 97.6705 185.801C97.0645 185.532 96.5872 185.157 96.2387 184.676C95.894 184.195 95.6989 183.636 95.6535 183H97.108C97.1459 183.439 97.2936 183.803 97.5512 184.091C97.8126 184.375 98.1421 184.587 98.5398 184.727C98.9413 184.864 99.3732 184.932 99.8353 184.932C100.373 184.932 100.856 184.845 101.284 184.67C101.712 184.492 102.051 184.246 102.301 183.932C102.551 183.614 102.676 183.242 102.676 182.818C102.676 182.432 102.568 182.117 102.352 181.875C102.136 181.633 101.852 181.436 101.5 181.284C101.148 181.133 100.767 181 100.358 180.886L98.9262 180.477C98.0171 180.216 97.2974 179.843 96.7671 179.358C96.2368 178.873 95.9716 178.239 95.9716 177.455C95.9716 176.803 96.1478 176.235 96.5001 175.75C96.8561 175.261 97.3334 174.883 97.9319 174.614C98.5341 174.341 99.2065 174.205 99.9489 174.205C100.699 174.205 101.366 174.339 101.949 174.608C102.532 174.873 102.994 175.237 103.335 175.699C103.68 176.161 103.862 176.686 103.881 177.273H102.517ZM109.88 186.182C109.092 186.182 108.401 185.994 107.806 185.619C107.215 185.244 106.753 184.72 106.42 184.045C106.09 183.371 105.926 182.583 105.926 181.682C105.926 180.773 106.09 179.979 106.42 179.301C106.753 178.623 107.215 178.097 107.806 177.722C108.401 177.347 109.092 177.159 109.88 177.159C110.668 177.159 111.357 177.347 111.948 177.722C112.543 178.097 113.005 178.623 113.335 179.301C113.668 179.979 113.835 180.773 113.835 181.682C113.835 182.583 113.668 183.371 113.335 184.045C113.005 184.72 112.543 185.244 111.948 185.619C111.357 185.994 110.668 186.182 109.88 186.182ZM109.88 184.977C110.479 184.977 110.971 184.824 111.357 184.517C111.744 184.21 112.03 183.807 112.215 183.307C112.401 182.807 112.494 182.265 112.494 181.682C112.494 181.098 112.401 180.555 112.215 180.051C112.03 179.547 111.744 179.14 111.357 178.83C110.971 178.519 110.479 178.364 109.88 178.364C109.282 178.364 108.789 178.519 108.403 178.83C108.017 179.14 107.731 179.547 107.545 180.051C107.359 180.555 107.267 181.098 107.267 181.682C107.267 182.265 107.359 182.807 107.545 183.307C107.731 183.807 108.017 184.21 108.403 184.517C108.789 184.824 109.282 184.977 109.88 184.977ZM117.383 174.364V186H116.042V174.364H117.383ZM123.294 186.182C122.567 186.182 121.925 185.998 121.368 185.631C120.811 185.259 120.375 184.737 120.061 184.062C119.747 183.384 119.589 182.583 119.589 181.659C119.589 180.742 119.747 179.947 120.061 179.273C120.375 178.598 120.813 178.078 121.374 177.71C121.934 177.343 122.582 177.159 123.317 177.159C123.885 177.159 124.334 177.254 124.663 177.443C124.997 177.629 125.25 177.841 125.425 178.08C125.603 178.314 125.741 178.508 125.839 178.659H125.953V174.364H127.294V186H125.999V184.659H125.839C125.741 184.818 125.601 185.019 125.419 185.261C125.237 185.5 124.978 185.714 124.641 185.903C124.303 186.089 123.855 186.182 123.294 186.182ZM123.476 184.977C124.014 184.977 124.468 184.837 124.839 184.557C125.211 184.273 125.493 183.881 125.686 183.381C125.879 182.877 125.976 182.295 125.976 181.636C125.976 180.985 125.881 180.415 125.692 179.926C125.502 179.434 125.222 179.051 124.851 178.778C124.48 178.502 124.021 178.364 123.476 178.364C122.908 178.364 122.434 178.509 122.055 178.801C121.68 179.089 121.398 179.481 121.209 179.977C121.023 180.47 120.93 181.023 120.93 181.636C120.93 182.258 121.025 182.822 121.214 183.33C121.408 183.833 121.692 184.235 122.067 184.534C122.445 184.83 122.915 184.977 123.476 184.977Z" fill="#7C8893"/>
<path fill-rule="evenodd" clip-rule="evenodd" d="M43.7365 0.347769C43.4428 0.672066 43.4185 1.05421 43.3739 6.05025L43.326 11.405H34.0248C24.8929 11.405 24.7171 11.4111 24.362 11.742L24.0002 12.079V22.5316C24.0002 34.1673 23.9572 33.719 25.072 33.719C25.4769 33.719 25.7227 33.6002 25.9716 33.2835C26.3093 32.8542 26.3143 32.7094 26.3143 23.2835V13.719H34.8266H43.339V16.7769V19.8347H38.158C33.3486 19.8347 32.9574 19.8564 32.7035 20.137C32.4668 20.3985 32.4299 20.9183 32.4299 23.9957C32.4299 27.4003 32.4448 27.5655 32.7775 27.8669C33.1012 28.16 33.4804 28.1851 38.2321 28.2299L43.339 28.278V31.2397V34.2013L38.2321 34.2494C33.4804 34.2942 33.1012 34.3193 32.7775 34.6124C32.4445 34.914 32.4299 35.0782 32.4299 38.5286C32.4299 42.0628 32.4367 42.1349 32.7974 42.3873C33.1104 42.6066 33.9151 42.6446 38.2519 42.6446H43.339V45.7025V48.7603H38.2151C33.3114 48.7603 33.0769 48.7745 32.7605 49.0909C32.4504 49.401 32.4301 49.64 32.4324 52.9339C32.4339 54.8658 32.4896 56.5281 32.5564 56.6281C32.8949 57.1349 33.4652 57.1901 38.3694 57.1901H43.339V60.2479V63.3058H38.158C33.3486 63.3058 32.9574 63.3274 32.7035 63.6081C32.4668 63.8696 32.4299 64.3894 32.4299 67.4668C32.4299 70.7021 32.4572 71.0478 32.7323 71.2967C32.9999 71.5388 33.6245 71.5702 38.1868 71.5702H43.339V74.6281V77.686H34.8266H26.3143V70.485C26.3143 62.274 26.3219 62.3226 25.0427 62.3165C23.9806 62.3116 24.0002 62.1445 24.0002 71.1939C24.0002 79.1185 24.0091 79.3478 24.3308 79.6694C24.6596 79.9982 24.8817 80 64.0001 80C103.119 80 103.341 79.9982 103.669 79.6694C103.997 79.3415 104 79.1185 104 51.417V23.495L103.564 23.1526C103.136 22.8152 102.986 22.8099 93.9028 22.8099H84.6767L84.6277 16.8651C84.5843 11.6167 84.5468 10.8888 84.3073 10.6494C84.0325 10.3749 45.1863 0 44.4327 0C44.223 0 43.9098 0.156529 43.7365 0.347769ZM64.3985 7.55289L82.4002 12.3139L82.2913 21.0744C82.2313 25.8926 82.1822 40.6012 82.182 53.7603L82.1819 77.686H64.0001H45.8183V47.6304C45.8183 31.0998 45.7689 14.2038 45.7084 10.0833L45.5983 2.59174L45.9977 2.69174C46.2172 2.74678 54.4977 4.93421 64.3985 7.55289ZM51.3481 18.257L50.9423 18.6626V22.3967V26.1307L51.3481 26.5364L51.7537 26.9421H55.458C58.9552 26.9421 59.1866 26.923 59.5976 26.5995L60.0332 26.257V22.3846C60.0332 18.7327 60.0143 18.4936 59.7026 18.1818C59.3912 17.8704 59.1517 17.8512 55.5629 17.8512H51.7537L51.3481 18.257ZM68.2976 18.1818C67.9859 18.4936 67.967 18.7327 67.967 22.3846V26.257L68.4026 26.5995C68.8135 26.9228 69.0454 26.9421 72.5164 26.9421C75.8907 26.9421 76.2272 26.916 76.585 26.6264C76.972 26.3134 76.9758 26.2779 77.0252 22.4954L77.0751 18.68L76.6609 18.2656L76.2465 17.8512H72.4373C68.8485 17.8512 68.609 17.8704 68.2976 18.1818ZM57.7191 22.3967V24.6281H55.4877H53.2563V22.3967V20.1653H55.4877H57.7191V22.3967ZM74.7439 22.3967V24.6281H72.5125H70.2811V22.3967V20.1653H72.5125H74.7439V22.3967ZM43.339 24.0524V25.9559L39.0002 25.9119L34.6613 25.8678L34.6146 24.0083L34.5678 22.1488H38.9534H43.339V24.0524ZM101.686 51.405V77.686H93.1736H84.6612V51.405V25.124H93.1736H101.686V51.405ZM88.0496 30.6107C87.8678 30.7139 87.6643 30.879 87.5976 30.9777C87.5308 31.0764 87.4751 32.5774 87.4736 34.3132C87.4713 37.163 87.5005 37.496 87.7734 37.743C88.041 37.9851 88.6638 38.0165 93.2023 38.0165C97.959 38.0165 98.3486 37.9947 98.6025 37.7142C98.8369 37.4552 98.876 36.9607 98.876 34.2552V31.0983L98.4405 30.7559C98.0222 30.4268 97.8149 30.4134 93.1926 30.4182C89.9182 30.4217 88.2746 30.4831 88.0496 30.6107ZM51.2765 32.5122C50.9383 32.9422 50.9273 33.0969 50.9752 36.7217C51.0195 40.0716 51.0573 40.517 51.3198 40.7795C51.5823 41.042 52.0277 41.0798 55.3777 41.1241C59.0024 41.1721 59.1571 41.161 59.5871 40.8228L60.0332 40.4719V36.5995C60.0332 32.9476 60.0143 32.7084 59.7026 32.3967C59.3909 32.085 59.1517 32.0661 55.4998 32.0661H51.6274L51.2765 32.5122ZM68.2976 32.3967C67.9859 32.7084 67.967 32.9476 67.967 36.5995V40.4719L68.4132 40.8228C68.8431 41.161 68.9978 41.1721 72.6226 41.1241C75.9725 41.0798 76.4179 41.042 76.6804 40.7795C76.9429 40.517 76.9807 40.0716 77.025 36.7217C77.073 33.0969 77.0619 32.9422 76.7237 32.5122L76.3728 32.0661H72.5004C68.8485 32.0661 68.6094 32.085 68.2976 32.3967ZM96.562 34.3008V35.8745L93.1323 35.8298L89.7025 35.7851L89.6538 34.4774C89.627 33.7582 89.6432 33.0702 89.69 32.9484C89.7571 32.7737 90.4865 32.7273 93.1685 32.7273H96.562V34.3008ZM57.7191 36.6116V38.843H55.4877H53.2563V36.6116V34.3802H55.4877H57.7191V36.6116ZM74.7439 36.6116V38.843H72.5125H70.2811V36.6116V34.3802H72.5125H74.7439V36.6116ZM43.339 38.4298V40.3306H38.9589H34.5787V38.54C34.5787 37.555 34.6283 36.6997 34.689 36.6392C34.7494 36.5785 36.7205 36.5289 39.0691 36.5289H43.339V38.4298ZM24.3308 39.8347C24.0346 40.1309 24.0002 40.3856 24.0002 42.2853C24.0002 44.2874 24.0215 44.4251 24.3827 44.7646C24.8544 45.2076 25.3301 45.2218 25.8414 44.8084C26.2078 44.5121 26.2349 44.3663 26.2863 42.4175C26.3399 40.383 26.3328 40.334 25.9219 39.9231C25.4182 39.4195 24.7814 39.3841 24.3308 39.8347ZM87.7447 42.2858C87.5103 42.5448 87.4715 43.0349 87.4736 45.7155C87.4751 47.4355 87.5308 48.9248 87.5976 49.0248C87.9346 49.5294 88.5085 49.5868 93.223 49.5868C97.8106 49.5868 98.0227 49.5729 98.4405 49.2441L98.876 48.9017V45.716C98.876 42.84 98.8466 42.504 98.5737 42.257C98.3061 42.0149 97.6833 41.9835 93.1448 41.9835C88.3881 41.9835 87.9986 42.0053 87.7447 42.2858ZM96.562 45.7058V47.2795L93.1323 47.2347L89.7025 47.1901L89.6538 45.8823C89.627 45.1631 89.6432 44.4752 89.69 44.3534C89.7571 44.1787 90.4865 44.1322 93.1685 44.1322H96.562V45.7058ZM51.2849 46.7165C50.9626 47.1261 50.9423 47.3612 50.9423 50.6757C50.9423 53.005 51.0076 54.3425 51.1349 54.6218C51.4405 55.2927 52.1595 55.4008 55.9254 55.3423C59.0057 55.2944 59.372 55.2587 59.6857 54.9744C60.0198 54.6717 60.0332 54.5116 60.0332 50.8377C60.0332 47.646 59.9907 46.955 59.7758 46.6484C59.5223 46.2861 59.4629 46.281 55.573 46.281H51.6274L51.2849 46.7165ZM68.2244 46.6484C68.0095 46.955 67.967 47.646 67.967 50.8377C67.967 54.5116 67.9804 54.6717 68.3145 54.9744C68.6282 55.2587 68.9945 55.2944 72.0748 55.3423C75.8407 55.4008 76.5597 55.2927 76.8654 54.6218C76.9926 54.3425 77.0579 53.005 77.0579 50.6757C77.0579 47.3612 77.0376 47.1261 76.7153 46.7165L76.3728 46.281H72.4272C68.5373 46.281 68.478 46.2861 68.2244 46.6484ZM57.7191 50.7438V53.0578H55.4877H53.2563V50.854C53.2563 49.6418 53.3059 48.6005 53.3666 48.54C53.4271 48.4793 54.4312 48.4298 55.598 48.4298H57.7191V50.7438ZM74.7072 50.7851L74.7531 53.0578H72.5171H70.2811V50.739V48.4202L72.4712 48.4663L74.6612 48.5124L74.7072 50.7851ZM24.2576 51.2765C24.0577 51.5618 24.0002 52.1091 24.0002 53.7269C24.0002 55.6907 24.0222 55.8307 24.3827 56.1696C24.8544 56.6126 25.3301 56.6268 25.8414 56.2132C26.202 55.9215 26.2359 55.7577 26.2878 54.0526C26.3491 52.0417 26.2829 51.5625 25.889 51.1686C25.4941 50.7737 24.5667 50.835 24.2576 51.2765ZM43.339 52.9752V54.876H38.9589H34.5787V52.9752V51.0744H38.9589H43.339V52.9752ZM87.7447 53.6907C87.5101 53.9499 87.4711 54.4451 87.4711 57.1618C87.4711 60.1102 87.4941 60.3536 87.8017 60.6612C88.1174 60.9769 88.3526 60.9917 93.0192 60.9917C97.8399 60.9917 98.4117 60.9357 98.7496 60.4298C98.8164 60.3298 98.8721 58.8276 98.8736 57.0917C98.8759 54.242 98.8466 53.9089 98.5737 53.662C98.3061 53.4198 97.6833 53.3884 93.1448 53.3884C88.3881 53.3884 87.9986 53.4102 87.7447 53.6907ZM96.562 57.1901V58.6777H93.0909H89.6199V57.1901V55.7025H93.0909H96.562V57.1901ZM51.7512 60.5102C51.023 60.7851 50.9423 61.2352 50.9423 65.0268C50.9423 68.3413 50.9626 68.5764 51.2849 68.9859L51.6274 69.4215H55.573C59.4629 69.4215 59.5223 69.4164 59.7758 69.054C59.9907 68.7474 60.0332 68.0565 60.0332 64.8648C60.0332 61.1907 60.0198 61.0307 59.6856 60.7281C59.369 60.4412 59.02 60.4102 55.76 60.3803C53.7276 60.3618 51.996 60.4179 51.7512 60.5102ZM68.7935 60.4478C67.9773 60.7479 67.967 60.8028 67.967 64.8648C67.967 68.0565 68.0095 68.7474 68.2244 69.054C68.478 69.4164 68.5373 69.4215 72.4272 69.4215H76.3728L76.7153 68.9859C77.0376 68.5764 77.0579 68.3413 77.0579 65.0268C77.0579 61.1711 76.9829 60.7826 76.184 60.5041C75.675 60.3266 69.256 60.2777 68.7935 60.4478ZM57.7191 64.9635V67.2823L55.5291 67.2362L53.339 67.1901L53.293 64.9174L53.2471 62.6446H55.4831H57.7191V64.9635ZM74.7072 64.9174L74.6612 67.1901L72.4712 67.2362L70.2811 67.2823V64.9635V62.6446H72.5171H74.7531L74.7072 64.9174ZM87.8386 65.0507C87.4799 65.302 87.4711 65.3856 87.4711 68.595C87.4711 71.8045 87.4799 71.8881 87.8386 72.1393C88.1513 72.3585 88.9483 72.3967 93.2104 72.3967C97.9946 72.3967 98.2294 72.3821 98.5455 72.0661C98.8529 71.7587 98.876 71.5152 98.876 68.595C98.876 65.6749 98.8529 65.4314 98.5455 65.124C98.2294 64.8079 97.9946 64.7934 93.2104 64.7934C88.9483 64.7934 88.1513 64.8316 87.8386 65.0507ZM43.339 67.5235V69.4269L39.0002 69.383L34.6613 69.3388L34.6146 67.4793L34.5678 65.6198H38.9534H43.339V67.5235ZM96.562 68.595V70.0826H93.0909H89.6199V68.595V67.1074H93.0909H96.562V68.595Z" fill="#0061E0"/>
</svg>
