<svg width="114" height="189" viewBox="0 0 114 189" fill="none" xmlns="http://www.w3.org/2000/svg">
<path d="M24.0142 106.909V136H17.8636V112.747H17.6932L11.0312 116.923V111.469L18.233 106.909H24.0142ZM43.9845 106.909V136H37.8339V112.747H37.6635L31.0016 116.923V111.469L38.2033 106.909H43.9845ZM62.7048 136.639C60.2616 136.63 58.1594 136.028 56.398 134.835C54.6461 133.642 53.2967 131.914 52.3497 129.651C51.4122 127.387 50.9482 124.665 50.9577 121.483C50.9577 118.311 51.4264 115.607 52.3639 113.372C53.3109 111.137 54.6603 109.437 56.4122 108.273C58.1736 107.098 60.2711 106.511 62.7048 106.511C65.1385 106.511 67.2313 107.098 68.9832 108.273C70.7446 109.447 72.0988 111.152 73.0457 113.386C73.9927 115.612 74.4615 118.311 74.452 121.483C74.452 124.674 73.9785 127.402 73.0315 129.665C72.094 131.928 70.7493 133.656 68.9974 134.849C67.2455 136.043 65.148 136.639 62.7048 136.639ZM62.7048 131.54C64.3715 131.54 65.702 130.702 66.6963 129.026C67.6906 127.349 68.183 124.835 68.1736 121.483C68.1736 119.277 67.9463 117.439 67.4918 115.972C67.0467 114.504 66.4122 113.401 65.5884 112.662C64.774 111.923 63.8128 111.554 62.7048 111.554C61.0476 111.554 59.7219 112.383 58.7276 114.04C57.7332 115.697 57.2313 118.178 57.2219 121.483C57.2219 123.718 57.4444 125.583 57.8895 127.08C58.344 128.566 58.9832 129.684 59.8071 130.432C60.631 131.17 61.5969 131.54 62.7048 131.54ZM87.9308 131.568V111.455H93.016V131.568H87.9308ZM80.4166 124.054V118.969H100.53V124.054H80.4166Z" fill="#0D263B"/>
<path d="M1.88636 182H0.409091L4.68182 170.364H6.13636L10.4091 182H8.93182L5.45455 172.205H5.36364L1.88636 182ZM2.43182 177.455H8.38636V178.705H2.43182V177.455ZM12.1998 185.273V173.273H13.4952V174.659H13.6543C13.7528 174.508 13.8892 174.314 14.0634 174.08C14.2414 173.841 14.4952 173.629 14.8248 173.443C15.1581 173.254 15.6089 173.159 16.177 173.159C16.9119 173.159 17.5596 173.343 18.1202 173.71C18.6808 174.078 19.1183 174.598 19.4327 175.273C19.7471 175.947 19.9043 176.742 19.9043 177.659C19.9043 178.583 19.7471 179.384 19.4327 180.062C19.1183 180.737 18.6827 181.259 18.1259 181.631C17.5691 181.998 16.927 182.182 16.1998 182.182C15.6392 182.182 15.1903 182.089 14.8532 181.903C14.5161 181.714 14.2566 181.5 14.0748 181.261C13.893 181.019 13.7528 180.818 13.6543 180.659H13.5407V185.273H12.1998ZM13.518 177.636C13.518 178.295 13.6145 178.877 13.8077 179.381C14.0009 179.881 14.2831 180.273 14.6543 180.557C15.0255 180.837 15.4801 180.977 16.018 180.977C16.5786 180.977 17.0464 180.83 17.4214 180.534C17.8002 180.235 18.0842 179.833 18.2736 179.33C18.4668 178.822 18.5634 178.258 18.5634 177.636C18.5634 177.023 18.4687 176.47 18.2793 175.977C18.0937 175.481 17.8115 175.089 17.4327 174.801C17.0577 174.509 16.5861 174.364 16.018 174.364C15.4725 174.364 15.0142 174.502 14.643 174.778C14.2717 175.051 13.9914 175.434 13.802 175.926C13.6127 176.415 13.518 176.985 13.518 177.636ZM24.678 182.205C24.1249 182.205 23.623 182.1 23.1723 181.892C22.7215 181.68 22.3636 181.375 22.0984 180.977C21.8333 180.576 21.7007 180.091 21.7007 179.523C21.7007 179.023 21.7992 178.617 21.9961 178.307C22.1931 177.992 22.4564 177.746 22.7859 177.568C23.1155 177.39 23.4791 177.258 23.8768 177.17C24.2783 177.08 24.6817 177.008 25.087 176.955C25.6173 176.886 26.0473 176.835 26.3768 176.801C26.7102 176.763 26.9526 176.701 27.1041 176.614C27.2594 176.527 27.337 176.375 27.337 176.159V176.114C27.337 175.553 27.1836 175.117 26.8768 174.807C26.5738 174.496 26.1136 174.341 25.4961 174.341C24.856 174.341 24.3541 174.481 23.9905 174.761C23.6268 175.042 23.3711 175.341 23.2234 175.659L21.9507 175.205C22.178 174.674 22.481 174.261 22.8598 173.966C23.2423 173.667 23.659 173.458 24.1098 173.341C24.5643 173.22 25.0113 173.159 25.4507 173.159C25.731 173.159 26.053 173.193 26.4166 173.261C26.784 173.326 27.1382 173.46 27.4791 173.665C27.8238 173.869 28.1098 174.178 28.337 174.591C28.5643 175.004 28.678 175.557 28.678 176.25V182H27.337V180.818H27.2689C27.178 181.008 27.0264 181.21 26.8143 181.426C26.6022 181.642 26.32 181.826 25.9677 181.977C25.6155 182.129 25.1855 182.205 24.678 182.205ZM24.8825 181C25.4128 181 25.8598 180.896 26.2234 180.688C26.5908 180.479 26.8673 180.21 27.053 179.881C27.2423 179.551 27.337 179.205 27.337 178.841V177.614C27.2802 177.682 27.1552 177.744 26.962 177.801C26.7727 177.854 26.553 177.902 26.303 177.943C26.0567 177.981 25.8162 178.015 25.5814 178.045C25.3503 178.072 25.1628 178.095 25.0189 178.114C24.6704 178.159 24.3446 178.233 24.0416 178.335C23.7423 178.434 23.4999 178.583 23.3143 178.784C23.1325 178.981 23.0416 179.25 23.0416 179.591C23.0416 180.057 23.2139 180.409 23.5586 180.648C23.9071 180.883 24.3484 181 24.8825 181ZM31.2854 182V173.273H32.5809V174.591H32.6718C32.8309 174.159 33.1187 173.809 33.5354 173.54C33.9521 173.271 34.4218 173.136 34.9445 173.136C35.043 173.136 35.1661 173.138 35.3138 173.142C35.4615 173.146 35.5733 173.152 35.649 173.159V174.523C35.6036 174.511 35.4994 174.494 35.3365 174.472C35.1774 174.445 35.0089 174.432 34.8309 174.432C34.4066 174.432 34.0278 174.521 33.6945 174.699C33.3649 174.873 33.1036 175.116 32.9104 175.426C32.721 175.733 32.6263 176.083 32.6263 176.477V182H31.2854ZM41.7409 173.273V174.409H37.2181V173.273H41.7409ZM38.5363 171.182H39.8772V179.5C39.8772 179.879 39.9321 180.163 40.042 180.352C40.1556 180.538 40.2996 180.663 40.4738 180.727C40.6518 180.788 40.8393 180.818 41.0363 180.818C41.184 180.818 41.3052 180.811 41.3999 180.795C41.4946 180.777 41.5704 180.761 41.6272 180.75L41.8999 181.955C41.809 181.989 41.6821 182.023 41.5193 182.057C41.3564 182.095 41.1499 182.114 40.8999 182.114C40.5212 182.114 40.1499 182.032 39.7863 181.869C39.4265 181.706 39.1272 181.458 38.8886 181.125C38.6537 180.792 38.5363 180.371 38.5363 179.864V171.182ZM43.9179 182V173.273H45.2588V182H43.9179ZM44.5997 171.818C44.3384 171.818 44.113 171.729 43.9236 171.551C43.738 171.373 43.6452 171.159 43.6452 170.909C43.6452 170.659 43.738 170.445 43.9236 170.267C44.113 170.089 44.3384 170 44.5997 170C44.8611 170 45.0846 170.089 45.2702 170.267C45.4596 170.445 45.5543 170.659 45.5543 170.909C45.5543 171.159 45.4596 171.373 45.2702 171.551C45.0846 171.729 44.8611 171.818 44.5997 171.818ZM51.4202 182.182C50.6323 182.182 49.9411 181.994 49.3464 181.619C48.7555 181.244 48.2933 180.72 47.96 180.045C47.6305 179.371 47.4657 178.583 47.4657 177.682C47.4657 176.773 47.6305 175.979 47.96 175.301C48.2933 174.623 48.7555 174.097 49.3464 173.722C49.9411 173.347 50.6323 173.159 51.4202 173.159C52.2081 173.159 52.8975 173.347 53.4884 173.722C54.0831 174.097 54.5452 174.623 54.8748 175.301C55.2081 175.979 55.3748 176.773 55.3748 177.682C55.3748 178.583 55.2081 179.371 54.8748 180.045C54.5452 180.72 54.0831 181.244 53.4884 181.619C52.8975 181.994 52.2081 182.182 51.4202 182.182ZM51.4202 180.977C52.0187 180.977 52.5111 180.824 52.8975 180.517C53.2839 180.21 53.5698 179.807 53.7555 179.307C53.9411 178.807 54.0339 178.265 54.0339 177.682C54.0339 177.098 53.9411 176.555 53.7555 176.051C53.5698 175.547 53.2839 175.14 52.8975 174.83C52.5111 174.519 52.0187 174.364 51.4202 174.364C50.8217 174.364 50.3293 174.519 49.943 174.83C49.5566 175.14 49.2706 175.547 49.085 176.051C48.8994 176.555 48.8066 177.098 48.8066 177.682C48.8066 178.265 48.8994 178.807 49.085 179.307C49.2706 179.807 49.5566 180.21 49.943 180.517C50.3293 180.824 50.8217 180.977 51.4202 180.977ZM62.4235 182V170.364H66.3553C67.2644 170.364 68.0106 170.519 68.5939 170.83C69.1773 171.136 69.6091 171.559 69.8894 172.097C70.1697 172.634 70.3098 173.246 70.3098 173.932C70.3098 174.617 70.1697 175.225 69.8894 175.756C69.6091 176.286 69.1791 176.703 68.5996 177.006C68.0201 177.305 67.2795 177.455 66.378 177.455H63.1962V176.182H66.3326C66.9538 176.182 67.4538 176.091 67.8326 175.909C68.2151 175.727 68.4916 175.47 68.6621 175.136C68.8363 174.799 68.9235 174.398 68.9235 173.932C68.9235 173.466 68.8363 173.059 68.6621 172.71C68.4879 172.362 68.2094 172.093 67.8269 171.903C67.4443 171.71 66.9386 171.614 66.3098 171.614H63.8326V182H62.4235ZM67.9007 176.773L70.7644 182H69.128L66.3098 176.773H67.9007ZM76.0877 182.182C75.2999 182.182 74.6086 181.994 74.0139 181.619C73.423 181.244 72.9608 180.72 72.6275 180.045C72.298 179.371 72.1332 178.583 72.1332 177.682C72.1332 176.773 72.298 175.979 72.6275 175.301C72.9608 174.623 73.423 174.097 74.0139 173.722C74.6086 173.347 75.2999 173.159 76.0877 173.159C76.8756 173.159 77.565 173.347 78.1559 173.722C78.7506 174.097 79.2127 174.623 79.5423 175.301C79.8756 175.979 80.0423 176.773 80.0423 177.682C80.0423 178.583 79.8756 179.371 79.5423 180.045C79.2127 180.72 78.7506 181.244 78.1559 181.619C77.565 181.994 76.8756 182.182 76.0877 182.182ZM76.0877 180.977C76.6862 180.977 77.1786 180.824 77.565 180.517C77.9514 180.21 78.2374 179.807 78.423 179.307C78.6086 178.807 78.7014 178.265 78.7014 177.682C78.7014 177.098 78.6086 176.555 78.423 176.051C78.2374 175.547 77.9514 175.14 77.565 174.83C77.1786 174.519 76.6862 174.364 76.0877 174.364C75.4892 174.364 74.9968 174.519 74.6105 174.83C74.2241 175.14 73.9381 175.547 73.7525 176.051C73.5669 176.555 73.4741 177.098 73.4741 177.682C73.4741 178.265 73.5669 178.807 73.7525 179.307C73.9381 179.807 74.2241 180.21 74.6105 180.517C74.9968 180.824 75.4892 180.977 76.0877 180.977ZM85.7946 182.182C85.0067 182.182 84.3154 181.994 83.7207 181.619C83.1298 181.244 82.6677 180.72 82.3344 180.045C82.0048 179.371 81.8401 178.583 81.8401 177.682C81.8401 176.773 82.0048 175.979 82.3344 175.301C82.6677 174.623 83.1298 174.097 83.7207 173.722C84.3154 173.347 85.0067 173.159 85.7946 173.159C86.5825 173.159 87.2719 173.347 87.8628 173.722C88.4575 174.097 88.9196 174.623 89.2491 175.301C89.5825 175.979 89.7491 176.773 89.7491 177.682C89.7491 178.583 89.5825 179.371 89.2491 180.045C88.9196 180.72 88.4575 181.244 87.8628 181.619C87.2719 181.994 86.5825 182.182 85.7946 182.182ZM85.7946 180.977C86.3931 180.977 86.8855 180.824 87.2719 180.517C87.6582 180.21 87.9442 179.807 88.1298 179.307C88.3154 178.807 88.4082 178.265 88.4082 177.682C88.4082 177.098 88.3154 176.555 88.1298 176.051C87.9442 175.547 87.6582 175.14 87.2719 174.83C86.8855 174.519 86.3931 174.364 85.7946 174.364C85.1961 174.364 84.7037 174.519 84.3173 174.83C83.931 175.14 83.645 175.547 83.4594 176.051C83.2738 176.555 83.181 177.098 83.181 177.682C83.181 178.265 83.2738 178.807 83.4594 179.307C83.645 179.807 83.931 180.21 84.3173 180.517C84.7037 180.824 85.1961 180.977 85.7946 180.977ZM91.956 182V173.273H93.2515V174.636H93.3651C93.5469 174.17 93.8405 173.809 94.2458 173.551C94.6511 173.29 95.1378 173.159 95.706 173.159C96.2818 173.159 96.7609 173.29 97.1435 173.551C97.5299 173.809 97.831 174.17 98.0469 174.636H98.1378C98.3613 174.186 98.6966 173.828 99.1435 173.562C99.5905 173.294 100.126 173.159 100.751 173.159C101.532 173.159 102.17 173.403 102.666 173.892C103.162 174.377 103.411 175.133 103.411 176.159V182H102.07V176.159C102.07 175.515 101.894 175.055 101.541 174.778C101.189 174.502 100.774 174.364 100.297 174.364C99.6833 174.364 99.2079 174.549 98.8708 174.92C98.5337 175.288 98.3651 175.754 98.3651 176.318V182H97.0015V176.023C97.0015 175.527 96.8405 175.127 96.5185 174.824C96.1966 174.517 95.7818 174.364 95.2742 174.364C94.9257 174.364 94.6 174.456 94.2969 174.642C93.9977 174.828 93.7553 175.085 93.5697 175.415C93.3878 175.741 93.2969 176.117 93.2969 176.545V182H91.956ZM112.204 175.227L111 175.568C110.924 175.367 110.812 175.172 110.664 174.983C110.52 174.79 110.323 174.631 110.073 174.506C109.823 174.381 109.503 174.318 109.113 174.318C108.579 174.318 108.134 174.441 107.778 174.688C107.426 174.93 107.25 175.239 107.25 175.614C107.25 175.947 107.371 176.21 107.613 176.403C107.856 176.597 108.234 176.758 108.75 176.886L110.045 177.205C110.825 177.394 111.407 177.684 111.789 178.074C112.172 178.46 112.363 178.958 112.363 179.568C112.363 180.068 112.219 180.515 111.931 180.909C111.647 181.303 111.25 181.614 110.738 181.841C110.227 182.068 109.632 182.182 108.954 182.182C108.064 182.182 107.327 181.989 106.744 181.602C106.161 181.216 105.791 180.652 105.636 179.909L106.909 179.591C107.03 180.061 107.259 180.413 107.596 180.648C107.937 180.883 108.382 181 108.931 181C109.556 181 110.053 180.867 110.42 180.602C110.791 180.333 110.977 180.011 110.977 179.636C110.977 179.333 110.871 179.08 110.659 178.875C110.447 178.667 110.121 178.511 109.681 178.409L108.227 178.068C107.428 177.879 106.84 177.585 106.465 177.188C106.094 176.786 105.909 176.284 105.909 175.682C105.909 175.189 106.047 174.754 106.323 174.375C106.604 173.996 106.984 173.699 107.465 173.483C107.95 173.267 108.5 173.159 109.113 173.159C109.977 173.159 110.655 173.348 111.147 173.727C111.643 174.106 111.996 174.606 112.204 175.227Z" fill="#7C8893"/>
<path fill-rule="evenodd" clip-rule="evenodd" d="M47.3802 0.0971135C47.1866 0.13594 46.8913 0.318768 46.7239 0.503398C46.4333 0.824002 46.4176 1.48356 46.3721 15.2794C46.3461 23.2216 46.3685 29.9634 46.4223 30.2613C46.4762 30.5591 46.6635 30.946 46.8391 31.1213C47.1515 31.4333 47.569 31.4398 67.2568 31.4398C87.0506 31.4398 87.3605 31.4349 87.6796 31.1163C87.8578 30.9383 88.0445 30.6251 88.0947 30.42C88.1449 30.2151 88.1653 23.4698 88.1399 15.4306L88.0939 0.813681L87.7205 0.440653C87.3571 0.0774546 87.2468 0.0661508 83.5985 0.0156929C80.5494 -0.0265737 79.74 0.00963142 79.2606 0.209661C78.6196 0.477022 78.3832 0.989792 78.5658 1.71652C78.7363 2.39491 79.508 2.60674 81.8082 2.60674H83.8185L82.7616 3.67159L81.7046 4.73645H67.2568H52.809L51.7552 3.67471L50.7012 2.61296L62.9719 2.56889L75.2428 2.52483L75.6387 2.06513C76.1385 1.48503 76.1385 1.10725 75.6387 0.527152L75.2428 0.0674614L61.4876 0.0469833C53.9222 0.0356795 47.5738 0.0582872 47.3802 0.0971135ZM50.0659 5.42795L51.0958 6.44711V15.7123V24.9776L49.9473 26.1155L48.7988 27.2534V15.8311C48.7988 9.54879 48.8521 4.4088 48.9174 4.4088C48.9827 4.4088 49.4995 4.86751 50.0659 5.42795ZM85.7149 15.8311V27.2534L84.5664 26.1155L83.4179 24.9776V15.7215V6.46545L84.4386 5.43713C85 4.87161 85.5168 4.4088 85.5871 4.4088C85.6575 4.4088 85.7149 9.54879 85.7149 15.8311ZM19.9026 5.22907C19.7566 5.31426 19.5556 5.5885 19.456 5.83833C19.2559 6.34111 15 24.8955 15 25.2658C15 25.3935 15.1531 25.6922 15.3401 25.9296L15.6801 26.3613H20.4263H25.1724V47.6584V68.9556H24.6284C21.4856 68.9556 19.0755 70.83 18.6383 73.6147C18.4613 74.7415 18.5431 75.2338 18.972 75.6216C19.2751 75.8956 19.8045 75.9219 25.9688 75.9679C29.6367 75.9952 32.8818 75.9726 33.1801 75.9178C34.0226 75.7626 34.3605 75.3178 34.3605 74.3636C34.3605 72.818 33.4354 71.045 32.1475 70.1213C31.1912 69.4357 30.2829 69.1312 28.8285 69.0083L27.6324 68.9074L27.6739 47.6753L27.7156 26.4432H29.2742H30.8329L30.8756 33.6819L30.9184 40.9205L31.3489 41.2588C31.5858 41.4447 31.8769 41.5969 31.9959 41.5969C32.4297 41.5969 33.0161 41.2234 33.1939 40.834C33.3183 40.5612 33.376 38.2061 33.376 33.398V26.3613H35.2446C37.37 26.3613 37.8622 26.1578 37.8586 25.281C37.8576 25.0192 36.8809 20.5291 35.6883 15.3031C33.7526 6.82079 33.4759 5.76183 33.1107 5.43271L32.7014 5.0641L26.4348 5.06902C22.8026 5.07196 20.0565 5.13913 19.9026 5.22907ZM80.9184 11.8364C80.9424 14.3447 80.9027 16.3721 80.8303 16.3416C80.7578 16.311 79.8987 15.4173 78.9213 14.3554C77.944 13.2933 76.9131 12.3019 76.6306 12.152C75.9031 11.766 74.316 11.7794 73.5107 12.1785C73.0868 12.3885 71.7174 13.7751 69.4165 16.3242C66.1175 19.979 65.9479 20.1395 65.7057 19.8332C64.6008 18.4348 61.5609 15.2928 61.0697 15.0413C60.3445 14.6701 59.0312 14.6318 58.2468 14.9591C57.911 15.0992 56.9083 16.0574 55.6681 17.4237L53.6389 19.659L53.5957 13.6318C53.5721 10.317 53.5883 7.5118 53.632 7.39827C53.6951 7.23412 56.4921 7.20053 67.2931 7.23379L80.8748 7.27573L80.9184 11.8364ZM31.4072 7.61517C31.4072 7.66678 32.2193 11.2535 33.212 15.5859C34.2046 19.918 35.0167 23.562 35.0167 23.6832C35.0167 23.8654 33.5127 23.9039 26.392 23.9039C18.2555 23.9039 17.7718 23.8877 17.8503 23.6172C17.8959 23.4594 18.68 20.0499 19.5925 16.0403C20.5049 12.0307 21.3245 8.47377 21.4136 8.13581L21.5755 7.52146H26.4914C29.195 7.52146 31.4072 7.56373 31.4072 7.61517ZM64.3703 9.04945C63.9726 9.25899 63.4257 9.74456 63.155 10.1284C62.7106 10.7585 62.6628 10.9493 62.6628 12.0958C62.6628 13.226 62.7143 13.4395 63.1326 14.042C63.7271 14.8988 64.9774 15.5503 66.0174 15.5452C67.8544 15.5364 69.47 13.9283 69.47 12.1085C69.47 9.55993 66.6317 7.85731 64.3703 9.04945ZM66.7553 11.4898C67.099 11.9798 67.0768 12.3702 66.6826 12.7638C66.047 13.3985 65.0419 12.9886 65.0419 12.0948C65.0419 11.1672 66.2337 10.7462 66.7553 11.4898ZM75.6844 14.525C75.8726 14.6827 77.1333 16.028 78.4857 17.5147L80.9448 20.2178L80.9507 22.2247L80.9568 24.2315H75.3132H69.6697L68.6621 23.0967L67.6544 21.9619L70.7921 18.4687C72.5179 16.5474 74.1122 14.8095 74.3352 14.6069C74.822 14.164 75.2243 14.1396 75.6844 14.525ZM63.2215 20.7503L66.3662 24.2315H59.9615H53.5568V23.8292C53.5568 23.5389 54.3421 22.5558 56.3767 20.2989C58.847 17.5588 59.2513 17.1769 59.6367 17.22C59.9752 17.2577 60.8034 18.0734 63.2215 20.7503ZM82.6796 27.8357L83.8192 28.9824H67.2568H50.6944L51.8341 27.8357L52.9737 26.6889H67.2568H81.5399L82.6796 27.8357ZM46.053 39.3922C43.1709 40.167 40.976 42.5327 40.4449 45.436C40.3471 45.9705 40.267 47.4839 40.267 48.7988V51.1896L39.1945 51.6562C37.8104 52.2583 36.7771 53.2677 36.1137 54.666L35.591 55.7677L35.5437 65.3762L35.4967 74.9845L35.8988 75.4514L36.3009 75.9181H55.7718H75.2427L75.6387 75.4584C76.1385 74.8783 76.1385 74.5005 75.6387 73.9204L75.2428 73.4607L61.3645 73.417L47.4862 73.3734V68.7889V64.2047H67.2568H87.0275V68.7917V73.3788H83.4126C79.4103 73.3788 78.7596 73.4984 78.5658 74.269C78.386 74.9845 78.6204 75.5089 79.2345 75.7651C79.7003 75.9594 81.3443 76 88.7343 76C94.5203 76 97.8289 75.94 98.1192 75.8298C99.0239 75.4863 98.9939 75.8311 98.9994 65.7346C99.0044 57.02 98.9834 56.3016 98.6961 55.3804C98.1371 53.5869 96.7979 52.1909 94.9669 51.4927L94.2466 51.218L94.2371 48.5781C94.2263 45.5213 93.9865 44.3177 93.0938 42.8353C92.4239 41.7227 91.2139 40.5815 90.114 40.025C88.3277 39.1212 88.6989 39.1395 72.24 39.1395C63.874 39.1395 56.9042 39.1874 56.7515 39.246C56.3333 39.4062 56.0205 40.2719 56.2054 40.7573C56.5354 41.6241 55.8109 41.5861 72.1081 41.5917C88.9906 41.5976 88.2098 41.5481 89.7346 42.7063C90.3291 43.1578 90.7132 43.639 91.1292 44.4532L91.7035 45.5769L91.7603 48.392L91.817 51.2072L90.8301 51.5664C89.5597 52.0291 88.3917 53.0789 87.6711 54.4058L87.1095 55.4401L87.0558 58.5943L87.0023 61.7486L67.2852 61.707L47.5682 61.6654L47.4826 58.5527C47.4037 55.6845 47.3656 55.3757 46.9976 54.6209C46.3746 53.3431 44.9662 52.0335 43.7314 51.584L42.6966 51.2072L42.7534 48.392L42.8101 45.5769L43.3844 44.4532C43.7975 43.6449 44.1828 43.1604 44.757 42.7276C46.0376 41.7624 46.7964 41.5969 49.944 41.5969C52.4759 41.5969 52.7263 41.5702 53.1245 41.2573C53.6896 40.8135 53.7139 39.9993 53.1772 39.4957C52.8154 39.1564 52.6579 39.14 49.8547 39.1504C47.8695 39.1576 46.6324 39.2362 46.053 39.3922ZM43.2761 54.0883C43.6435 54.2912 44.1688 54.7767 44.4436 55.1673L44.9431 55.8776L44.9882 64.6281L45.0335 73.3788H41.5017H37.97L37.971 65.0647C37.9715 59.6631 38.0334 56.5295 38.1474 56.1191C38.244 55.7718 38.6229 55.1629 38.9892 54.7661C40.1189 53.5425 41.8045 53.2759 43.2761 54.0883ZM94.032 53.802C95.0279 54.0974 96.0998 55.1614 96.3662 56.1191C96.4803 56.5295 96.5421 59.6631 96.5426 65.0647L96.5436 73.3788H93.0161H89.4885V64.8298C89.4885 56.4767 89.4964 56.2644 89.8334 55.5693C90.2185 54.7749 90.9827 54.1196 91.9083 53.7899C92.7109 53.5038 93.0325 53.5056 94.032 53.802ZM30.0946 71.7224C30.6057 71.9991 31.3847 72.7119 31.5911 73.0921C31.7379 73.3624 31.4464 73.3788 26.4867 73.3788H21.2264L21.4606 72.9283C21.7668 72.3395 22.5476 71.7756 23.3222 71.5838C24.286 71.3451 29.5983 71.4539 30.0946 71.7224Z" fill="#0061E0"/>
</svg>
