<svg width="100" height="100" viewBox="0 0 100 100" fill="none" xmlns="http://www.w3.org/2000/svg">
<g opacity="0.2">
<path d="M8.33333 51.4583H32.4999C38.8749 51.4583 43.25 56.2917 43.25 62.2083V75.6251C43.25 81.5418 38.8749 86.3749 32.4999 86.3749H19.0834C13.1667 86.3749 8.33333 81.5418 8.33333 75.6251V51.4583" stroke="#292D32" stroke-width="1.5" stroke-linecap="round" stroke-linejoin="round"/>
<path d="M8.33333 51.4582C8.33333 26.2499 13.0418 22.0834 27.2085 13.6667" stroke="#292D32" stroke-width="1.5" stroke-linecap="round" stroke-linejoin="round"/>
<path d="M56.7917 51.4583H80.9583C87.3333 51.4583 91.7084 56.2917 91.7084 62.2083V75.6251C91.7084 81.5418 87.3333 86.3749 80.9583 86.3749H67.5418C61.6251 86.3749 56.7917 81.5418 56.7917 75.6251V51.4583" stroke="#292D32" stroke-width="1.5" stroke-linecap="round" stroke-linejoin="round"/>
<path d="M56.7917 51.4582C56.7917 26.2499 61.4999 22.0834 75.6666 13.6667" stroke="#292D32" stroke-width="1.5" stroke-linecap="round" stroke-linejoin="round"/>
</g>
</svg>
