<svg width="100" height="103" viewBox="0 0 100 103" fill="none" xmlns="http://www.w3.org/2000/svg">
<g opacity="0.2">
<path d="M91.6667 49.5225H67.5C61.125 49.5225 56.75 44.5914 56.75 38.5552V24.8674C56.75 18.8312 61.125 13.9004 67.5 13.9004H80.9167C86.8333 13.9004 91.6667 18.8312 91.6667 24.8674V49.5225Z" stroke="#292D32" stroke-width="1.5" stroke-linecap="round" stroke-linejoin="round"/>
<path d="M91.6666 49.5225C91.6666 75.2401 86.9583 79.4907 72.7916 88.0774" stroke="#292D32" stroke-width="1.5" stroke-linecap="round" stroke-linejoin="round"/>
<path d="M43.2083 49.5225H19.0416C12.6666 49.5225 8.29163 44.5914 8.29163 38.5552V24.8674C8.29163 18.8312 12.6666 13.9004 19.0416 13.9004H32.5C38.4166 13.9004 43.25 18.8312 43.25 24.8674V49.5225" stroke="#292D32" stroke-width="1.5" stroke-linecap="round" stroke-linejoin="round"/>
<path d="M43.2083 49.5225C43.2083 75.2401 38.4999 79.4907 24.3333 88.0774" stroke="#292D32" stroke-width="1.5" stroke-linecap="round" stroke-linejoin="round"/>
</g>
</svg>
